<svg width="338" height="627" viewBox="0 0 338 627" fill="none" xmlns="http://www.w3.org/2000/svg">
<path fill-rule="evenodd" clip-rule="evenodd" d="M71.9323 560.471L66.9355 585.853L95.476 599.158L107.473 572.876L71.9323 560.471Z" fill="black"/>
<path fill-rule="evenodd" clip-rule="evenodd" d="M83.5826 627L98.3299 592.991C98.3299 592.991 81.6568 585.359 68.1673 579.823C47.044 582.968 15.077 581.157 4.4936 578.957C1.60486 586.112 0 590.989 0 590.989L83.5826 627Z" fill="black"/>
<path fill-rule="evenodd" clip-rule="evenodd" d="M279.193 563.235L291.477 574.583L318.022 555.092L308.653 542.721L279.193 563.235Z" fill="black"/>
<path fill-rule="evenodd" clip-rule="evenodd" d="M315.679 551.973L338 581.201L290.106 618.736H242.775L242.88 606.331C242.88 606.331 276.434 600.267 276.33 600.362C283.27 592.107 288.909 572.192 288.909 572.192L315.679 551.973Z" fill="black"/>
<path fill-rule="evenodd" clip-rule="evenodd" d="M232.878 292.918C232.878 292.918 248.44 407.68 253.958 420.041C259.475 432.403 312.877 543.51 312.877 543.51L274.283 571.152C274.283 571.152 188.358 441.793 184.463 434.863C181.947 430.428 175.241 404.016 175.241 404.016L109.069 583.947L65.2178 563.936L111.255 297.543L232.878 292.918Z" fill="#AADAF1"/>
<path fill-rule="evenodd" clip-rule="evenodd" d="M186.267 294.702L151.811 296.01L152.062 304.309L186.267 294.702ZM152.678 326.139L156.625 454.623L175.233 404.163L152.678 326.139Z" fill="#73A9C3"/>
<path d="M175.276 404.163L149.434 314.21" stroke="#0097F7" stroke-width="1.7" stroke-linecap="round" stroke-linejoin="round"/>
<path d="M274.231 509.907L238.265 443.465C245.291 436.37 248.232 428.791 232.123 437.783C220.177 444.444 218.182 442.183 228.653 430.653C242.749 415.164 240.294 413.042 226.432 415.277" stroke="#284A76" stroke-width="1.7" stroke-linecap="round" stroke-linejoin="round"/>
<path d="M229.33 409.742C229.33 409.742 217.74 328.59 214.392 318.602" stroke="#284A76" stroke-width="1.7" stroke-linecap="round" stroke-linejoin="round"/>
<path d="M109.529 504.545C110.805 499.097 117.71 450.577 122.004 449.382C142.407 443.716 146.094 435.79 126.601 430.237C107.517 424.789 107.586 423.151 124.797 417.919C142.407 412.557 138.937 409.716 127.616 399.624C123.782 396.202 141.375 353.443 142.364 349.277" stroke="#284A76" stroke-width="1.7" stroke-linecap="round" stroke-linejoin="round"/>
<path fill-rule="evenodd" clip-rule="evenodd" d="M262.945 210.502C262.833 203.823 264.273 191.92 261.288 184.765C258.304 177.61 238.604 180.693 238.604 180.693C238.604 180.693 263.049 217.146 262.945 210.502Z" fill="#F77F89"/>
<path fill-rule="evenodd" clip-rule="evenodd" d="M181.713 95.4187C226.493 95.4187 263.032 118.071 263.387 152.401C263.604 173.945 267.577 189.443 267.577 189.443L227.872 199.301C227.872 199.301 241.666 293.871 236.825 297.847C222.425 309.697 121.397 313.665 108.862 300.766C107.76 284.809 117.476 242.293 117.476 242.293C117.476 242.293 86.6451 169.718 103.353 135.492C119.185 103.05 160.807 97.2205 179.258 96.5882C180.273 96.5535 180.846 95.4187 181.713 95.4187Z" fill="#0D2B52"/>
<path fill-rule="evenodd" clip-rule="evenodd" d="M208.25 36.383C208.51 21.0588 192.834 0 170.262 0C152.574 0 134.504 8.40274 134.044 22.0723C133.125 16.4243 132.249 12.9333 132.891 9.81474C129.074 9.62416 121.396 19.4562 121.396 32.5888C121.396 37.665 125.361 56.8441 136.638 56.6102C147.916 56.3763 190.952 71.7611 190.952 71.7611C190.952 71.7611 193.78 75.8932 197.597 75.5813C201.414 75.2695 208.64 68.1228 208.701 64.1813C208.761 60.2398 205.187 53.1538 205.231 50.9622C205.274 48.7705 207.981 51.6812 208.25 36.383Z" fill="#6A3416"/>
<path d="M154.274 140.022L146.319 168.921" stroke="black" stroke-width="3.41" stroke-linecap="round" stroke-linejoin="round"/>
<path fill-rule="evenodd" clip-rule="evenodd" d="M131.789 56.0558C131.787 49.4245 133.755 42.9418 137.443 37.4274C141.132 31.913 146.375 27.6148 152.51 25.0763C158.644 22.5379 165.395 21.8733 171.908 23.1665C178.421 24.4598 184.404 27.6528 189.1 32.3418C193.795 37.0308 196.993 43.0051 198.288 49.509C199.583 56.0128 198.918 62.7542 196.376 68.8803C193.834 75.0064 189.529 80.2421 184.007 83.9252C178.485 87.6082 171.993 89.5731 165.352 89.5714C156.451 89.5714 147.914 86.0403 141.619 79.7549C135.325 73.4695 131.789 64.9447 131.789 56.0558V56.0558Z" fill="#F77F89"/>
<path fill-rule="evenodd" clip-rule="evenodd" d="M130.176 43.3131C130.176 43.3131 134.687 42.4468 141.323 32.6408C149.599 34.2 163.218 34.1307 174.825 30.631C174.973 37.6218 180.109 49.0651 187.179 47.8003C194.249 46.5356 197.146 29.5222 197.146 29.5222L180.482 12.1277L155.281 12.2923L137.541 24.7751L130.176 43.3131Z" fill="#6A3416"/>
<path fill-rule="evenodd" clip-rule="evenodd" d="M140.195 52.071C139.883 49.3942 140.724 47.1073 142.069 46.9514C143.413 46.7955 144.767 48.8312 145.079 51.4993C145.391 54.1673 144.55 56.4629 143.197 56.6189C141.843 56.7748 140.533 54.7391 140.195 52.071Z" fill="#90415B"/>
<path fill-rule="evenodd" clip-rule="evenodd" d="M199.245 63.0292C198.377 68.3567 196.642 93.6948 199.392 99.083C193.259 105.251 175.276 107.91 165.855 105.233C166.592 97.9222 163.556 90.7755 161.934 87.8562C160.312 84.9369 200.086 57.693 199.245 63.0292Z" fill="#F77F89"/>
<path fill-rule="evenodd" clip-rule="evenodd" d="M162.611 47.9562C162.299 45.2881 163.14 43.0012 164.485 42.8366C165.829 42.672 167.183 44.7164 167.486 47.3931C167.79 50.0699 166.966 52.3568 165.613 52.5128C164.259 52.6687 162.923 50.633 162.611 47.9562Z" fill="#90415B"/>
<path d="M151.438 52.9632C151.707 56.1164 149.174 68.0361 148.636 69.8813C148.098 71.7264 150.987 72.4108 150.987 72.4108" stroke="#90415B" stroke-width="1.7" stroke-linecap="round" stroke-linejoin="round"/>
<path fill-rule="evenodd" clip-rule="evenodd" d="M133.472 66.5635C133.645 69.916 141.574 87.2065 146.25 89.866C150.926 92.5254 186.154 92.1789 194.248 74.767C187.603 73.7362 183.101 68.1055 177.844 56.0558C166.098 57.7883 152.782 56.0558 150.639 56.1684C148.288 56.307 142.632 64.1034 133.472 66.5635Z" fill="white"/>
<path fill-rule="evenodd" clip-rule="evenodd" d="M203.8 130.424C222.225 130.069 258.764 127.826 262.433 143.418C266.103 159.011 269.59 185.752 267.578 189.417C265.565 193.081 228.046 197.724 228.046 197.724C225.079 190.222 208.701 147.923 203.8 130.424Z" fill="#0D2B52"/>
<path fill-rule="evenodd" clip-rule="evenodd" d="M243.123 233.795C232.973 235.441 173.073 193.765 165.647 194.58C158.221 195.394 139.163 194.666 139.163 194.666C139.163 194.666 128.319 153.164 151.455 151.63C152.886 151.535 161.362 159.063 161.362 159.063C161.362 159.063 163.712 158.318 165.352 159.661C168.345 162.104 178.078 173.148 182.945 174.898C191.134 177.852 257.592 190.404 260.776 195.688C263.96 200.973 267.473 229.854 243.123 233.795Z" fill="#F77F89"/>
<path fill-rule="evenodd" clip-rule="evenodd" d="M83.9733 169.787H130.427C135.788 169.787 141.878 173.755 144.038 178.658L176.734 252.818C178.894 257.713 176.3 261.68 170.939 261.68H124.494C119.133 261.68 113.034 257.713 110.874 252.818L78.1871 178.649C76.0271 173.746 78.6209 169.787 83.9733 169.787Z" fill="#F7D167"/>
<path fill-rule="evenodd" clip-rule="evenodd" d="M82.8369 230.044C80.6248 224.344 79.0459 216.47 82.1515 211.428C85.2572 206.387 97.2112 190.863 102.165 190.578C107.118 190.292 119.835 204.057 121.197 208.518C122.559 212.979 122.065 222.672 119.931 226.848C117.797 231.023 109.235 239.131 104.923 239.296C100.612 239.461 84.1468 233.527 82.8369 230.044Z" fill="#F77F89"/>
<path fill-rule="evenodd" clip-rule="evenodd" d="M81.6132 218.653C81.0146 209.453 76.9981 199.491 74.2742 192.735C72.4525 188.239 73.7971 184.384 76.8767 183.509C79.9562 182.634 89.5073 195.212 89.7849 204.94C90.0625 214.668 82.2204 227.827 81.6132 218.653Z" fill="#F77F89"/>
<path d="M81.041 213.967C83.2493 209.095 86.1957 204.593 89.7766 200.617" stroke="#81666F" stroke-width="1.7" stroke-linecap="round" stroke-linejoin="round"/>
<path d="M93.3594 215.457C93.3594 210.51 103.457 196.087 107.239 194.32" stroke="#905F6F" stroke-width="1.7" stroke-linecap="round" stroke-linejoin="round"/>
<path d="M103.274 221.278C103.387 218.878 111.247 205.806 115.749 203.208" stroke="#8B5D6C" stroke-width="1.7" stroke-linecap="round" stroke-linejoin="round"/>
<path d="M121.734 144.544C120.867 149.621 120.052 160.475 122.151 169.761" stroke="#AADAF1" stroke-width="1.7" stroke-linecap="round" stroke-linejoin="round"/>
<path d="M180.169 165.629L209.447 166.218" stroke="#AADAF1" stroke-width="1.7" stroke-linecap="round" stroke-linejoin="round"/>
<path fill-rule="evenodd" clip-rule="evenodd" d="M163.678 98.0781C163.253 102.357 158.169 130.026 175.276 130.026C186.285 130.026 203.374 104.454 200.668 96.8307" fill="#F77F89"/>
<path d="M163.678 98.0781C163.253 102.357 158.169 130.026 175.276 130.026C186.285 130.026 203.374 104.454 200.668 96.8307" stroke="#AADAF1" stroke-width="1.7" stroke-linecap="round" stroke-linejoin="round"/>
<path fill-rule="evenodd" clip-rule="evenodd" d="M182.945 52.2789C182.944 49.7531 183.692 47.2836 185.096 45.1826C186.5 43.0817 188.496 41.4437 190.833 40.476C193.169 39.5082 195.74 39.2541 198.221 39.7458C200.702 40.2375 202.982 41.4529 204.771 43.2383C206.56 45.0237 207.778 47.2989 208.273 49.776C208.767 52.2531 208.514 54.8209 207.546 57.1546C206.579 59.4883 204.94 61.483 202.837 62.8864C200.734 64.2898 198.261 65.0389 195.732 65.0389C192.342 65.0389 189.091 63.6948 186.694 61.3021C184.296 58.9094 182.948 55.6639 182.945 52.2789Z" fill="#F77F89"/>
<path d="M177.975 56.307C177.975 56.307 186.051 41.5805 194.604 39.5621" stroke="white" stroke-width="1.7" stroke-linecap="round" stroke-linejoin="round"/>
<path d="M194.196 74.871L200.46 64.1033" stroke="white" stroke-width="1.7" stroke-linecap="round" stroke-linejoin="round"/>
<path d="M222.945 184.618C218.043 171.788 211.008 152.956 206.566 139.459" stroke="#AADAF1" stroke-width="1.7" stroke-linecap="round" stroke-linejoin="round"/>
<path d="M134.461 70.1065C136.751 76.3523 142.537 87.7523 146.259 89.8659C147.742 90.7322 152.331 91.2519 158.178 91.0354" stroke="#C9C9C9" stroke-width="3.41" stroke-linecap="round" stroke-linejoin="round"/>
<path d="M86.3326 620.633L2.29883 584.562" stroke="#7C7C7C" stroke-width="1.7" stroke-linecap="round" stroke-linejoin="round"/>
<path d="M242.819 613.391L287.712 611.84L333.75 575.631" stroke="#7C7C7C" stroke-width="1.7" stroke-linecap="round" stroke-linejoin="round"/>
</svg>
