<svg width="558" height="645" viewBox="0 0 558 645" fill="none" xmlns="http://www.w3.org/2000/svg">
<g clip-path="url(#clip0)">
<path d="M352.069 178.304H298.002C297.497 178.304 297.013 178.504 296.657 178.86C296.3 179.216 296.1 179.699 296.1 180.203V206.79C296.1 207.293 296.3 207.776 296.657 208.132C297.013 208.489 297.497 208.689 298.002 208.689H352.069C352.573 208.689 353.057 208.489 353.414 208.132C353.771 207.776 353.971 207.293 353.971 206.79V180.203C353.971 179.699 353.771 179.216 353.414 178.86C353.057 178.504 352.573 178.304 352.069 178.304Z" stroke="#AADAF1" stroke-width="2" stroke-linecap="round" stroke-linejoin="round"/>
<path d="M323.11 147.852H269.052C268.548 147.852 268.064 148.052 267.708 148.408C267.351 148.764 267.15 149.247 267.15 149.751V176.338C267.15 176.842 267.351 177.325 267.708 177.681C268.064 178.037 268.548 178.237 269.052 178.237H323.11C323.615 178.237 324.098 178.037 324.455 177.681C324.812 177.325 325.012 176.842 325.012 176.338V149.751C325.012 149.247 324.812 148.764 324.455 148.408C324.098 148.052 323.615 147.852 323.11 147.852Z" stroke="#AADAF1" stroke-width="2" stroke-linecap="round" stroke-linejoin="round"/>
<path d="M294.15 178.304H240.093C239.588 178.304 239.104 178.504 238.748 178.86C238.391 179.216 238.19 179.699 238.19 180.203V206.79C238.19 207.293 238.391 207.776 238.748 208.132C239.104 208.489 239.588 208.689 240.093 208.689H294.15C294.655 208.689 295.139 208.489 295.495 208.132C295.852 207.776 296.052 207.293 296.052 206.79V180.203C296.052 179.699 295.852 179.216 295.495 178.86C295.139 178.504 294.655 178.304 294.15 178.304Z" stroke="#AADAF1" stroke-width="2" stroke-linecap="round" stroke-linejoin="round"/>
<path d="M380.106 208.746H326.049C325.544 208.746 325.06 208.946 324.704 209.302C324.347 209.658 324.146 210.141 324.146 210.645V237.232C324.146 237.735 324.347 238.218 324.704 238.575C325.06 238.931 325.544 239.131 326.049 239.131H380.106C380.611 239.131 381.095 238.931 381.451 238.575C381.808 238.218 382.008 237.735 382.008 237.232V210.645C382.008 210.141 381.808 209.658 381.451 209.302C381.095 208.946 380.611 208.746 380.106 208.746Z" stroke="#AADAF1" stroke-width="2" stroke-linecap="round" stroke-linejoin="round"/>
<path fill-rule="evenodd" clip-rule="evenodd" d="M290.431 535.395H473.622C474.833 535.395 475.994 535.875 476.85 536.73C477.707 537.585 478.188 538.744 478.188 539.953C478.185 541.16 477.703 542.317 476.847 543.17C475.991 544.022 474.832 544.501 473.622 544.501H290.431C289.222 544.501 288.062 544.022 287.207 543.17C286.351 542.317 285.869 541.16 285.866 539.953C285.866 538.744 286.347 537.585 287.203 536.73C288.059 535.875 289.221 535.395 290.431 535.395Z" fill="white"/>
<path fill-rule="evenodd" clip-rule="evenodd" d="M4.55553 562.818H187.775C188.374 562.816 188.967 562.933 189.52 563.161C190.073 563.389 190.576 563.724 190.999 564.147C191.423 564.57 191.758 565.071 191.987 565.624C192.215 566.176 192.332 566.768 192.331 567.366V567.366C192.332 567.964 192.215 568.556 191.987 569.108C191.758 569.66 191.423 570.162 190.999 570.585C190.576 571.007 190.073 571.342 189.52 571.571C188.967 571.799 188.374 571.915 187.775 571.914H4.55553C3.34733 571.914 2.18861 571.435 1.33428 570.582C0.479956 569.729 0 568.572 0 567.366H0C0 566.16 0.479956 565.003 1.33428 564.15C2.18861 563.297 3.34733 562.818 4.55553 562.818V562.818Z" fill="white"/>
<path fill-rule="evenodd" clip-rule="evenodd" d="M403.721 538.947C388.445 538.953 373.506 543.425 360.746 551.809C347.987 560.194 337.964 572.124 331.916 586.129C326.995 582.166 320.871 579.989 314.548 579.957C308.226 579.924 302.08 582.037 297.117 585.949C293.674 577.759 288.001 570.697 280.742 565.562C273.484 560.427 264.929 557.426 256.049 556.898C247.168 556.37 238.318 558.337 230.5 562.575C222.682 566.814 216.21 573.154 211.818 580.878C207.245 578.056 202.099 576.287 196.755 575.702C191.41 575.117 186.003 575.73 180.926 577.495C175.849 579.261 171.231 582.135 167.407 585.909C163.584 589.683 160.652 594.26 158.825 599.308C159.662 599.308 160.451 599.071 161.298 599.071H523.372C522.048 594.212 519.489 589.777 515.945 586.195C512.4 582.612 507.989 580.004 503.139 578.622C498.289 577.24 493.164 577.132 488.26 578.307C483.355 579.483 478.838 581.902 475.144 585.331C469.009 571.531 458.995 559.803 446.318 551.57C433.641 543.337 418.844 538.952 403.721 538.947V538.947Z" fill="#DEDEDE"/>
<path fill-rule="evenodd" clip-rule="evenodd" d="M139.205 589.974H553.444C554.653 589.977 555.812 590.458 556.666 591.313C557.52 592.167 558 593.325 558 594.532V594.532C557.997 595.738 557.517 596.893 556.663 597.746C555.809 598.598 554.652 599.078 553.444 599.08H139.205C137.998 599.078 136.84 598.598 135.986 597.746C135.133 596.893 134.652 595.738 134.649 594.532V594.532C134.649 593.325 135.129 592.167 135.983 591.313C136.837 590.458 137.996 589.977 139.205 589.974V589.974Z" fill="#DEDEDE"/>
<path fill-rule="evenodd" clip-rule="evenodd" d="M71.9658 537.817L59.916 554.671L84.7384 585.73L96.151 565.79L71.9658 537.817Z" fill="#F77F89"/>
<path fill-rule="evenodd" clip-rule="evenodd" d="M58.803 547.008L30.2715 579.919L75.0945 632.143C75.0945 632.143 104.843 631.82 114.24 631.82C114.049 620.426 105.756 596.821 82.6648 597.732C87.325 589.566 90.6346 582.834 90.6346 582.834L58.803 547.008Z" fill="#6367FD"/>
<path d="M82.6465 597.761C69.7407 593.782 63.8727 598.966 54.8187 608.557C48.4942 615.261 35.3127 614.691 27.2383 610.845" stroke="#4C4FD9" stroke-width="2" stroke-linecap="round" stroke-linejoin="round"/>
<path d="M53.0684 639.616C57.3216 641.44 61.7135 642.923 66.2024 644.05C78.0144 633.606 85.0046 608.813 82.7887 597.761" stroke="#4C4FD9" stroke-width="2" stroke-linecap="round" stroke-linejoin="round"/>
<path d="M47.2765 559.96C50.0671 562.068 52.2308 564.895 53.5358 568.138C54.8408 571.38 55.2381 574.915 54.6851 578.366C54.1321 581.816 52.6496 585.051 50.3963 587.725C48.1431 590.399 45.2039 592.411 41.8936 593.545" stroke="#4C4FD9" stroke-width="2" stroke-linecap="round" stroke-linejoin="round"/>
<path d="M35.2461 574.155L79.3653 622.259L112.053 620.36" stroke="#4C4FD9" stroke-width="2" stroke-linecap="round" stroke-linejoin="round"/>
<path fill-rule="evenodd" clip-rule="evenodd" d="M143.095 398.558L67.6572 536.592L96.5406 570.348L232.855 429.911L202.935 387.695L143.095 398.558Z" fill="#F7D167"/>
<path d="M112.224 554.196L78.5762 516.604" stroke="#FF3274" stroke-width="2" stroke-linecap="round" stroke-linejoin="round"/>
<path fill-rule="evenodd" clip-rule="evenodd" d="M202.926 387.704L143.104 398.567L112.671 454.295L164.912 453.051L181.945 482.364L232.855 429.93L202.926 387.704Z" fill="#BF9111"/>
<path d="M80.4209 551.509C111.33 515.36 205.96 405.185 205.96 405.185" stroke="#FF3274" stroke-width="2" stroke-linecap="round" stroke-linejoin="round"/>
<path fill-rule="evenodd" clip-rule="evenodd" d="M285.866 583.109L294.977 602.1L335.815 594.722L329.063 571.848L285.866 583.109Z" fill="#F77F89"/>
<path fill-rule="evenodd" clip-rule="evenodd" d="M288.92 602.176L302.872 642.056C302.872 642.056 383.587 625.914 389.722 624.329C378.309 597.552 354.894 602.043 344.623 604.607C342.048 599.729 339.749 594.711 337.737 589.576L288.92 602.176Z" fill="#6367FD"/>
<path d="M343.938 595.434C345.593 590.06 349.435 586.48 352.497 587.43C355.56 588.379 356.739 593.488 355.084 598.824C353.429 604.16 349.587 607.769 346.525 606.829C343.462 605.889 342.283 600.799 343.938 595.434Z" stroke="#4C4FD9" stroke-width="2" stroke-linecap="round" stroke-linejoin="round"/>
<path d="M357.462 594.751C361.741 590.373 367.067 588.996 369.369 591.684C371.67 594.371 370.053 600.096 365.774 604.474C361.494 608.851 356.168 610.237 353.867 607.55C351.565 604.863 353.182 599.156 357.462 594.751Z" stroke="#4C4FD9" stroke-width="2" stroke-linecap="round" stroke-linejoin="round"/>
<path fill-rule="evenodd" clip-rule="evenodd" d="M320.228 281.632C325.287 285.715 330.537 290.577 337.28 293.121C347.361 295.562 365.812 315.749 365.812 320.098C365.812 324.219 362.131 325.605 359.839 325.795C357.861 325.918 353.648 321.351 352.583 320.05C354.418 324.228 355.483 329.887 353.448 331.663C351.413 333.439 348.484 334.056 346.486 331.758C343.205 327.96 344.014 323.649 343.709 321.123C342.093 318.037 337.689 311.172 335.825 310.336C334.522 310.403 332.563 310.859 332.192 312.938C331.821 315.018 336.662 319.661 337.204 321.598C337.204 324.057 334.513 327.181 332.192 326.564C329.548 325.861 321.369 317.933 319.562 315.768C317.127 312.853 316.024 306.5 314.721 304.373C313.418 302.246 308.359 297.727 307.417 296.777C306.476 295.827 315.178 277.539 320.228 281.632Z" fill="#F77F89"/>
<path fill-rule="evenodd" clip-rule="evenodd" d="M269.727 182.092C287.902 197.503 315.102 258.197 332.582 273.134C330.756 282.506 301.797 317.41 281.33 309.093C255.69 298.667 256.004 170.46 269.727 182.092Z" fill="#3B4161"/>
<path fill-rule="evenodd" clip-rule="evenodd" d="M283.851 268.604L337.737 574.098L281.283 587.392L207.148 393.174L225.561 258.198L283.851 268.604Z" fill="#F7D167"/>
<path d="M236.269 469.46L209.764 400.01" stroke="#FF3274" stroke-width="2" stroke-linecap="round" stroke-linejoin="round"/>
<path d="M305.829 581.619L218.741 308.19" stroke="#FF3274" stroke-width="2" stroke-linecap="round" stroke-linejoin="round"/>
<path d="M288.625 295.704C281.017 298.885 242.024 306.073 226.959 304.497" stroke="#FF3274" stroke-width="2" stroke-linecap="round" stroke-linejoin="round"/>
<path fill-rule="evenodd" clip-rule="evenodd" d="M125.111 222.799L227.358 233.633C233.454 234.279 237.82 240.014 237.154 246.452L220.549 402.603C219.864 409.031 214.376 413.722 208.28 413.048L106.033 402.251C99.9366 401.606 95.5712 395.871 96.237 389.433L112.833 233.282C113.518 226.844 119.015 222.191 125.111 222.799Z" fill="#6367FD"/>
<path d="M128.468 317.942C128.468 310.242 130.755 302.715 135.039 296.313C139.324 289.911 145.414 284.921 152.539 281.975C159.664 279.028 167.504 278.257 175.068 279.759C182.632 281.261 189.58 284.969 195.033 290.414C200.486 295.858 204.2 302.795 205.705 310.347C207.209 317.899 206.437 325.727 203.486 332.84C200.534 339.954 195.537 346.034 189.124 350.312C182.712 354.59 175.173 356.873 167.461 356.873C157.119 356.873 147.201 352.771 139.889 345.47C132.576 338.17 128.468 328.267 128.468 317.942Z" stroke="#4C4FD9" stroke-width="2" stroke-linecap="round" stroke-linejoin="round"/>
<path fill-rule="evenodd" clip-rule="evenodd" d="M164.95 48.3313C164.95 38.6366 170.419 30.7744 177.171 30.7744C183.924 30.7744 189.402 38.6366 189.402 48.3313C189.402 58.0261 183.924 65.8882 177.171 65.8882C170.419 65.8882 164.95 58.0261 164.95 48.3313Z" fill="#F77F89"/>
<path fill-rule="evenodd" clip-rule="evenodd" d="M171.836 57.5417C171.836 49.8284 174.127 42.2882 178.419 35.8749C182.712 29.4617 188.813 24.4633 195.95 21.5119C203.088 18.5606 210.942 17.7889 218.519 19.2943C226.096 20.7998 233.056 24.5149 238.518 29.9698C243.98 35.4246 247.7 42.3741 249.206 49.9395C250.712 57.5049 249.937 65.3463 246.979 72.472C244.021 79.5976 239.014 85.6875 232.589 89.9715C226.164 94.2554 218.612 96.541 210.886 96.5391C205.757 96.5391 200.678 95.5303 195.94 93.5704C191.202 91.6105 186.896 88.7378 183.27 85.1165C179.644 81.4951 176.768 77.196 174.806 72.4647C172.844 67.7333 171.835 62.6625 171.836 57.5417Z" fill="#F77F89"/>
<path fill-rule="evenodd" clip-rule="evenodd" d="M158.616 306.396C156.799 312.444 150.912 325.026 156.514 347.539C145.9 363.919 150.855 375.455 175.164 378.352C179.254 373.367 183.353 370.1 187.918 362.903C189.401 356.427 189.268 346.485 189.401 343.789C189.658 338.338 181.66 316.774 183.647 307.089C185.635 297.404 160.432 300.338 158.616 306.396Z" fill="#F77F89"/>
<path fill-rule="evenodd" clip-rule="evenodd" d="M207.081 109.624C150.893 109.624 129.504 227.509 135.639 302.94C147.289 310.279 193.786 313.138 207.081 309.653C209.935 296.407 210.886 240.973 211.523 231.952C242.556 234.991 237.201 239.786 233.454 281.252C249.622 281.812 271.401 277.454 287.664 270.636C289.946 242.207 273.208 109.624 207.081 109.624Z" fill="#3B4161"/>
<path d="M128.468 229.949L135.886 159.066C137.046 147.978 142.571 137.804 151.244 130.783C159.918 123.761 171.03 120.468 182.136 121.626L190.096 122.452C201.202 123.61 211.392 129.126 218.424 137.786C225.457 146.445 228.756 157.54 227.596 168.628L219.987 241.505" stroke="#6367FD" stroke-width="6.77" stroke-linecap="round" stroke-linejoin="round"/>
<path fill-rule="evenodd" clip-rule="evenodd" d="M184.095 80.3591C187.024 92.9214 187.756 110.611 187.271 117.562C194.718 121.949 214.024 124.997 223.307 112.558C218.913 101.952 217.933 96.824 218.304 90.7185C218.675 84.613 181.165 67.7968 184.095 80.3591Z" fill="#F77F89"/>
<path fill-rule="evenodd" clip-rule="evenodd" d="M196.544 93.8235C195.716 87.0818 200.576 71.215 203.353 69.0121C229.46 69.9617 245.665 51.3982 248.3 46.3182C250.737 49.5483 252.511 53.2268 253.521 57.1429C254.196 59.7257 253.607 61.5393 249.184 65.2425C248.062 80.4635 234.224 104.629 196.544 93.8235Z" fill="white"/>
<path d="M205.427 70.6169C205.427 70.6169 181.651 51.1894 174.746 50.2399" stroke="white" stroke-width="3.05" stroke-linecap="round" stroke-linejoin="round"/>
<path fill-rule="evenodd" clip-rule="evenodd" d="M224.818 50.2683C224.818 46.888 225.922 44.1438 227.282 44.1438C228.642 44.1438 229.745 46.888 229.745 50.2683C229.745 53.6486 228.642 56.3928 227.282 56.3928C225.922 56.3928 224.818 53.6486 224.818 50.2683Z" fill="#CB5D66"/>
<path d="M209.174 288.573C200.129 289.874 150.922 287.747 134.649 281.062" stroke="#737999" stroke-width="2" stroke-linecap="round" stroke-linejoin="round"/>
<path d="M211.523 231.952C210.885 213.37 227.824 153.036 194.347 128.225" stroke="#737999" stroke-width="2" stroke-linecap="round" stroke-linejoin="round"/>
<path d="M211.532 231.848L194.347 239.197" stroke="#737999" stroke-width="2" stroke-linecap="round" stroke-linejoin="round"/>
<path d="M195.099 230.215L211.58 231.373" stroke="#737999" stroke-width="2" stroke-linecap="round" stroke-linejoin="round"/>
<path d="M197.543 218.64L211.599 231.25" stroke="#737999" stroke-width="2" stroke-linecap="round" stroke-linejoin="round"/>
<path d="M287.712 270.617C288.663 258.188 286.038 225.856 277.25 193.401" stroke="#737999" stroke-width="2" stroke-linecap="round" stroke-linejoin="round"/>
<path d="M319.658 258.074C312.049 271.481 293.979 285.962 287.417 288.839" stroke="#737999" stroke-width="2" stroke-linecap="round" stroke-linejoin="round"/>
<path d="M266.76 300.841C265.961 296.036 263.089 278.195 263.089 278.195" stroke="#FF3274" stroke-width="2" stroke-linecap="round" stroke-linejoin="round"/>
<path d="M334.38 555.098L272.666 564.821" stroke="#FF3274" stroke-width="2" stroke-linecap="round" stroke-linejoin="round"/>
<path d="M316.699 454.172C315.607 454.294 314.508 454.354 313.409 454.352C306.126 454.354 299.096 451.692 293.646 446.869C288.197 442.047 284.705 435.398 283.831 428.18C282.958 420.962 284.763 413.675 288.905 407.695C293.048 401.716 299.241 397.458 306.314 395.728" stroke="#FF3274" stroke-width="2" stroke-linecap="round" stroke-linejoin="round"/>
<path d="M300.218 634.489L386.545 618.147" stroke="#4C4FD9" stroke-width="2" stroke-linecap="round" stroke-linejoin="round"/>
<path d="M293.313 615.754C296.239 614.608 299.401 614.193 302.524 614.545C305.647 614.897 308.636 616.005 311.233 617.773C313.829 619.54 315.954 621.915 317.422 624.689C318.89 627.463 319.658 630.553 319.658 633.691C319.66 635.364 319.446 637.03 319.02 638.648" stroke="#4C4FD9" stroke-width="2" stroke-linecap="round" stroke-linejoin="round"/>
<path d="M196.953 92.3992C193.967 91.2692 181.964 87.0913 175.726 74.5385" stroke="white" stroke-width="3.05" stroke-linecap="round" stroke-linejoin="round"/>
<path fill-rule="evenodd" clip-rule="evenodd" d="M164.246 64.9671C164.244 62.4817 164.981 60.0516 166.363 57.9843C167.745 55.9169 169.709 54.3053 172.009 53.3533C174.309 52.4013 176.839 52.1518 179.281 52.6362C181.722 53.1206 183.965 54.3172 185.726 56.0747C187.486 57.8321 188.684 60.0714 189.17 62.5092C189.655 64.9469 189.405 67.4735 188.451 69.7694C187.498 72.0653 185.884 74.0271 183.813 75.4068C181.742 76.7864 179.308 77.5218 176.819 77.52C173.485 77.5174 170.289 76.1941 167.931 73.8405C165.574 71.487 164.249 68.2956 164.246 64.9671V64.9671Z" fill="#F77F89"/>
<path d="M188.85 68.6418C188.06 71.2123 186.465 73.4619 184.3 75.06C182.134 76.6581 179.512 77.5203 176.819 77.52" stroke="#CB5D66" stroke-width="2" stroke-linecap="round" stroke-linejoin="round"/>
<path d="M166.899 57.2475C168.715 54.9195 171.294 53.3056 174.184 52.6897" stroke="#CB5D66" stroke-width="2" stroke-linecap="round" stroke-linejoin="round"/>
<path fill-rule="evenodd" clip-rule="evenodd" d="M196.868 2.03201C191.483 3.2703 186.395 5.55559 181.894 8.75737C177.394 11.9592 173.569 16.0147 170.639 20.6924C167.709 25.3701 165.73 30.5783 164.816 36.0196C163.902 41.4608 164.07 47.0286 165.312 52.4048L247.321 33.5376C246.081 28.1611 243.792 23.0811 240.585 18.5879C237.378 14.0947 233.316 10.2763 228.631 7.35062C223.946 4.42497 218.729 2.44944 213.279 1.53686C207.829 0.624288 202.252 0.79254 196.868 2.03201Z" fill="#F2E283"/>
<path fill-rule="evenodd" clip-rule="evenodd" d="M216.146 27.47L275.405 13.8347C280.313 12.6953 284.916 14.6038 285.753 18.0696C286.552 21.5449 283.223 25.2766 278.306 26.416L219.046 40.0514C214.129 41.1813 209.536 39.2822 208.699 35.8069C207.89 32.3316 211.229 28.6 216.146 27.47Z" fill="#F2E283"/>
<path d="M154.783 370.717C157.315 368.036 159.586 365.121 161.564 362.01" stroke="#CB5D66" stroke-width="2" stroke-linecap="round" stroke-linejoin="round"/>
<path d="M165.283 376.405C169.278 372.55 175.127 364.412 178.113 359.532" stroke="#CB5D66" stroke-width="2" stroke-linecap="round" stroke-linejoin="round"/>
<path d="M333.334 311.068C339.326 306.101 348.674 316.271 352.926 320.373" stroke="#CB5D66" stroke-width="2" stroke-linecap="round" stroke-linejoin="round"/>
<path d="M178.997 70.0757C178.311 70.3785 177.569 70.5338 176.819 70.5315C175.983 70.5328 175.159 70.3412 174.41 69.9718C173.661 69.6023 173.007 69.065 172.5 68.4017C171.994 67.7384 171.647 66.9672 171.489 66.1482C171.33 65.3292 171.363 64.4847 171.585 63.6805C171.807 62.8763 172.212 62.1342 172.769 61.5123C173.326 60.8903 174.019 60.4052 174.795 60.095C175.57 59.7848 176.407 59.6577 177.24 59.7238C178.073 59.7899 178.879 60.0473 179.596 60.4759" stroke="#CB5D66" stroke-width="2" stroke-linecap="round" stroke-linejoin="round"/>
<path d="M216.896 2.29785C211.02 0.779087 204.885 0.546737 198.91 1.61673C192.936 2.68672 187.264 5.03375 182.283 8.49696C177.302 11.9602 173.13 16.4577 170.053 21.6812C166.976 26.9047 165.066 32.7307 164.455 38.76" stroke="#FF3274" stroke-width="2" stroke-linecap="round" stroke-linejoin="round"/>
<path d="M248.3 46.3182C250.737 49.5483 252.511 53.2268 253.521 57.1429C254.197 59.7257 253.607 61.5393 249.184 65.2425C248.31 77.0452 239.798 94.2223 218.456 96.3112" stroke="#C9C9C9" stroke-width="2" stroke-linecap="round" stroke-linejoin="round"/>
</g>
<defs>
<clipPath id="clip0">
<rect width="558" height="645" fill="white"/>
</clipPath>
</defs>
</svg>
