<svg width="258" height="579" viewBox="0 0 258 579" fill="none" xmlns="http://www.w3.org/2000/svg">
<g clip-path="url(#clip0)">
<path d="M27.0857 232.688H74.418C74.8598 232.688 75.2835 232.863 75.5959 233.175C75.9083 233.486 76.0838 233.909 76.0838 234.35V257.629C76.0838 258.07 75.9083 258.493 75.5959 258.805C75.2835 259.117 74.8598 259.292 74.418 259.292H27.0857C26.6439 259.292 26.2202 259.117 25.9078 258.805C25.5954 258.493 25.4199 258.07 25.4199 257.629V234.35C25.4199 233.909 25.5954 233.486 25.9078 233.175C26.2202 232.863 26.6439 232.688 27.0857 232.688Z" stroke="#AADAF1" stroke-width="2" stroke-linecap="round" stroke-linejoin="round"/>
<path d="M52.4714 206.033H99.7788C100.221 206.033 100.644 206.209 100.957 206.52C101.269 206.832 101.445 207.255 101.445 207.696V230.975C101.445 231.416 101.269 231.839 100.957 232.151C100.644 232.462 100.221 232.638 99.7788 232.638H52.4714C52.0296 232.638 51.6059 232.462 51.2936 232.151C50.9812 231.839 50.8057 231.416 50.8057 230.975V207.696C50.8057 207.255 50.9812 206.832 51.2936 206.52C51.6059 206.209 52.0296 206.033 52.4714 206.033Z" stroke="#AADAF1" stroke-width="2" stroke-linecap="round" stroke-linejoin="round"/>
<path d="M77.7995 232.688H125.14C125.582 232.688 126.006 232.863 126.318 233.175C126.63 233.486 126.806 233.909 126.806 234.35V257.629C126.806 258.07 126.63 258.493 126.318 258.805C126.006 259.117 125.582 259.292 125.14 259.292H77.7995C77.3578 259.292 76.9341 259.117 76.6217 258.805C76.3093 258.493 76.1338 258.07 76.1338 257.629V234.35C76.1338 233.909 76.3093 233.486 76.6217 233.175C76.9341 232.863 77.3578 232.688 77.7995 232.688Z" stroke="#AADAF1" stroke-width="2" stroke-linecap="round" stroke-linejoin="round"/>
<path d="M2.49876 259.391H49.8644C50.3062 259.391 50.7299 259.567 51.0423 259.878C51.3547 260.19 51.5302 260.613 51.5302 261.054V284.333C51.5302 284.774 51.3547 285.197 51.0423 285.509C50.7299 285.821 50.3062 285.996 49.8644 285.996H2.49876C2.05698 285.996 1.63328 285.821 1.3209 285.509C1.00851 285.197 0.833008 284.774 0.833008 284.333V261.054C0.833008 260.613 1.00851 260.19 1.3209 259.878C1.63328 259.567 2.05698 259.391 2.49876 259.391V259.391Z" stroke="#AADAF1" stroke-width="2" stroke-linecap="round" stroke-linejoin="round"/>
<path fill-rule="evenodd" clip-rule="evenodd" d="M93.9648 528.435H118.61V552.604H93.9648V528.435Z" fill="#F77F89"/>
<path fill-rule="evenodd" clip-rule="evenodd" d="M186.564 527.737H211.218V551.897H186.564V527.737Z" fill="#F77F89"/>
<path fill-rule="evenodd" clip-rule="evenodd" d="M50.2559 60.3418L66.6302 56.9165C67.7565 56.6769 68.9321 56.8922 69.8998 57.5154C70.8674 58.1386 71.5485 59.119 71.7941 60.2421L78.532 91.4189C78.649 91.9709 78.6555 92.5406 78.5512 93.0951C78.4469 93.6496 78.2339 94.1781 77.9243 94.6502C77.6147 95.1222 77.2147 95.5286 76.7472 95.8458C76.2798 96.163 75.7542 96.3849 75.2005 96.4987L58.8428 99.9323C57.7165 100.172 56.541 99.9566 55.5733 99.3334C54.6056 98.7102 53.9245 97.7299 53.679 96.6068L46.9077 65.4299C46.7909 64.8762 46.7849 64.3049 46.8902 63.7489C46.9954 63.193 47.2098 62.6633 47.521 62.1903C47.8323 61.7174 48.2341 61.3106 48.7035 60.9934C49.1728 60.6761 49.7004 60.4547 50.2559 60.3418Z" fill="#9B9B9B"/>
<path fill-rule="evenodd" clip-rule="evenodd" d="M55.561 110.574C53.5455 107.39 38.3621 77.8008 43.0679 75.2901C47.7736 72.7793 50.3972 75.3982 51.5466 78.1168C54.0452 75.4647 59.2007 72.2971 61.3329 74.6083C63.8315 77.2604 61.7576 81.5005 59.8836 83.155C62.0241 82.4067 63.9981 81.9661 65.7138 84.3605C67.9042 87.3368 65.0891 95.8585 63.5899 97.1388L71.5023 104.621C71.5023 104.621 57.5683 113.725 55.561 110.574Z" fill="#F77F89"/>
<path fill-rule="evenodd" clip-rule="evenodd" d="M190.612 292.938C190.612 280.001 203.555 269.518 219.53 269.518C235.504 269.518 248.439 280.001 248.439 292.938C248.439 305.874 235.496 316.358 219.53 316.358C203.564 316.358 190.612 305.874 190.612 292.938Z" fill="#163255"/>
<path fill-rule="evenodd" clip-rule="evenodd" d="M165.743 25.7729C188.006 25.7729 199.058 45.9921 200.124 53.0173C201.19 60.0425 199.816 74.8411 201.79 80.7689C207.27 96.8977 227.226 105.619 227.226 121.939C227.226 159.7 185.582 148.768 172.914 148.285C160.246 147.803 126.897 146.739 126.897 124.084C126.897 115.072 133.036 115.072 133.144 103.349C133.236 93.4392 127.689 90.6374 127.689 66.8931C127.747 57.1825 140.948 25.6565 165.743 25.7729Z" fill="black"/>
<path fill-rule="evenodd" clip-rule="evenodd" d="M134.518 222.212C133.918 215.761 130.02 150.713 149.626 124.109C148.975 121.955 148.493 119.753 148.185 117.524C140.997 122.696 114.121 149.948 110.706 154.479C107.599 150.539 74.1259 103.715 72.4601 103.158C70.7944 102.601 54.4367 110.183 54.0785 111.921C53.7204 113.658 93.9233 191.044 104.051 194.303C108.299 195.666 114.295 191.484 116.169 190.877C116.428 195.034 78.9232 303.945 114.72 304.777C136 278.281 135.109 228.63 134.518 222.212Z" fill="#284A76"/>
<path fill-rule="evenodd" clip-rule="evenodd" d="M125.623 241.974L75.792 531.462L119.818 531.279L152.517 392.804L168.874 533.615L211.101 533.074L213.991 242.34L125.623 241.974Z" fill="#3B4161"/>
<path fill-rule="evenodd" clip-rule="evenodd" d="M191.37 248.883C186.797 249.856 129.337 248.692 124.09 245.773C118.843 242.855 119.925 233.403 132.86 230.21C128.279 229.071 118.551 223.501 131.669 221.547C134.009 198.144 123.848 112.47 164.251 110.973C192.81 106.775 197.566 131.808 197.566 131.808C197.566 131.808 195.942 247.91 191.37 248.883Z" fill="#93B5C9"/>
<path fill-rule="evenodd" clip-rule="evenodd" d="M164.243 36.5809C148.893 36.5809 136.45 51.0221 136.45 68.8303C136.45 86.6385 148.893 101.046 164.243 101.046C170.732 100.945 176.934 98.3585 181.567 93.8216C180.992 85.7406 180.917 77.5349 182.167 73.2449C184.099 67.9241 183.399 70.1522 181.417 69.9194L183.158 68.4395C183.158 64.7399 183.774 67.2673 187.481 67.2673L191.878 67.0844C191.12 50.1075 179.068 36.5809 164.243 36.5809Z" fill="#F77F89"/>
<path fill-rule="evenodd" clip-rule="evenodd" d="M132.511 63.1852C138.458 61.6222 143.114 58.7539 148.244 49.6336C154.357 55.2454 159.555 55.3535 168.633 53.5744C168.1 58.0056 167.667 63.0189 173.505 63.6175C179.344 64.2161 196.601 71.7151 196.601 71.7151L195.768 52.0613L180.535 35.0179L162.745 31.7755L147.061 39.1166L137.267 51.8035C137.267 51.8035 126.598 64.7066 132.511 63.1852Z" fill="black"/>
<path fill-rule="evenodd" clip-rule="evenodd" d="M171.923 65.7458C171.923 63.3544 172.633 61.0166 173.963 59.0278C175.294 57.0391 177.185 55.4887 179.398 54.5724C181.611 53.6561 184.046 53.4151 186.396 53.8798C188.746 54.3445 190.906 55.4941 192.601 57.1834C194.297 58.8726 195.453 61.0257 195.924 63.3706C196.394 65.7155 196.158 68.1469 195.244 70.3577C194.331 72.5685 192.782 74.4594 190.792 75.7916C188.802 77.1238 186.462 77.8375 184.066 77.8424C182.472 77.8468 180.893 77.5371 179.42 76.931C177.946 76.3249 176.607 75.4345 175.479 74.3107C174.35 73.1868 173.456 71.8518 172.845 70.382C172.235 68.9123 171.922 67.3367 171.923 65.7458V65.7458Z" fill="#F77F89"/>
<path fill-rule="evenodd" clip-rule="evenodd" d="M160.029 96.615C161.203 102.327 160.245 109.726 158.854 115.005C162.961 117.35 179.402 118.156 184.399 114.565C182.491 107.606 179.585 82.1407 182.175 73.2532C175.654 72.6878 158.854 90.8951 160.029 96.615Z" fill="#F77F89"/>
<path fill-rule="evenodd" clip-rule="evenodd" d="M192.078 271.862C190.286 274.806 188.34 277.653 186.248 280.392C186.248 280.392 180.776 278.663 179.277 280.667C177.777 282.67 167.775 295.299 172.689 299.597C177.602 303.895 183.116 293.162 184.665 291.766C189.766 296.404 194.575 301.351 199.066 306.581C199.066 306.581 199.024 299.024 199.857 296.363C200.69 293.703 205.82 286.603 207.536 284.724C209.252 282.845 194.893 267.14 192.078 271.862Z" fill="#F77F89"/>
<path fill-rule="evenodd" clip-rule="evenodd" d="M186.156 115.047C183.549 121.615 180.434 128.033 172.364 132.739C171.905 140.096 178.785 240.951 184.49 251.394C186.799 255.486 189.666 259.239 193.011 262.542C191.253 267.248 189.679 271.513 190.329 272.877C191.162 274.656 205.629 287.01 207.586 286.47C208.868 286.12 212.508 282.363 215.573 278.987C229.732 287.135 242.8 292.938 243.058 300.545C243.058 305.982 241.226 307.687 238.985 310.305C242.217 308.709 249.971 300.553 250.137 290.519C250.346 277.865 238.127 255.733 235.979 250.122C239.968 245.599 253.927 226.436 257.217 209.592C248.772 176.844 215.415 115.953 186.156 115.047Z" fill="#284A76"/>
<path d="M196.609 175.048C199.474 179.595 219.371 209.567 219.371 209.567C219.371 209.567 200.723 247.752 194.269 261.054" stroke="#93B5C9" stroke-width="2" stroke-linecap="round" stroke-linejoin="round"/>
<path d="M248.239 229.362C244.733 227.66 241.816 224.954 239.859 221.588C237.903 218.222 236.996 214.351 237.255 210.468C237.515 206.585 238.928 202.868 241.315 199.792C243.702 196.715 246.953 194.419 250.654 193.197" stroke="#93B5C9" stroke-width="2" stroke-linecap="round" stroke-linejoin="round"/>
<path d="M226.276 202.907L219.363 209.558" stroke="#93B5C9" stroke-width="2" stroke-linecap="round" stroke-linejoin="round"/>
<path d="M227.9 213.491L219.363 209.068" stroke="#93B5C9" stroke-width="2" stroke-linecap="round" stroke-linejoin="round"/>
<path d="M194.519 265.535C196.451 267.73 208.677 276.402 212.009 277.815" stroke="#93B5C9" stroke-width="2" stroke-linecap="round" stroke-linejoin="round"/>
<path d="M92.8496 181.557C94.68 179.657 97.0377 178.345 99.6201 177.792C102.203 177.238 104.892 177.467 107.343 178.45C109.793 179.433 111.894 181.125 113.375 183.308C114.856 185.491 115.649 188.066 115.654 190.703V191.01" stroke="#93B5C9" stroke-width="2" stroke-linecap="round" stroke-linejoin="round"/>
<path d="M110.664 154.463L103.826 164.614" stroke="#93B5C9" stroke-width="2" stroke-linecap="round" stroke-linejoin="round"/>
<path d="M116.761 162.444L110.873 154.288" stroke="#93B5C9" stroke-width="2" stroke-linecap="round" stroke-linejoin="round"/>
<path d="M77.6325 109.452L58.5264 121.598" stroke="#93B5C9" stroke-width="2" stroke-linecap="round" stroke-linejoin="round"/>
<path d="M152.466 392.937C151.267 384.822 146.703 315.36 149.918 291.184" stroke="#737999" stroke-width="2" stroke-linecap="round" stroke-linejoin="round"/>
<path d="M199.499 411.535L212.333 406.43L198.524 397.833" stroke="#737999" stroke-width="2" stroke-linecap="round" stroke-linejoin="round"/>
<path d="M134.518 413.904L147.985 411.917L139.223 402.522" stroke="#737999" stroke-width="2" stroke-linecap="round" stroke-linejoin="round"/>
<path d="M122.491 260.156C126.656 260.722 166.634 262.925 192.453 261.678" stroke="#737999" stroke-width="2" stroke-linecap="round" stroke-linejoin="round"/>
<path d="M78.6074 514.95L123.949 513.67" stroke="#737999" stroke-width="2" stroke-linecap="round" stroke-linejoin="round"/>
<path d="M167.042 518.093L211.243 516.838" stroke="#737999" stroke-width="2" stroke-linecap="round" stroke-linejoin="round"/>
<path d="M184.523 291.882L202.997 310.497" stroke="#737999" stroke-width="2" stroke-linecap="round" stroke-linejoin="round"/>
<path d="M173.347 280.625L176.803 284.1" stroke="#737999" stroke-width="2" stroke-linecap="round" stroke-linejoin="round"/>
<path d="M181.925 533.449L169.074 262.027" stroke="#737999" stroke-width="2" stroke-linecap="round" stroke-linejoin="round"/>
<path d="M149.518 347.468L104.942 531.337" stroke="#737999" stroke-width="2" stroke-linecap="round" stroke-linejoin="round"/>
<path fill-rule="evenodd" clip-rule="evenodd" d="M158.854 68.7138C158.854 67.0511 159.537 65.7458 160.387 65.7458C161.237 65.7458 161.928 67.076 161.928 68.7138C161.928 70.3516 161.237 71.6735 160.387 71.6735C159.537 71.6735 158.854 70.3433 158.854 68.7138Z" fill="#B5545C"/>
<path fill-rule="evenodd" clip-rule="evenodd" d="M141.248 68.7138C141.248 67.0511 141.939 65.7458 142.789 65.7458C143.638 65.7458 144.321 67.076 144.321 68.7138C144.321 70.3516 143.638 71.6735 142.789 71.6735C141.939 71.6735 141.248 70.3433 141.248 68.7138Z" fill="#B5545C"/>
<path d="M150.026 69.2626C150.276 71.5738 149.776 76.745 148.027 79.0064" stroke="#B5545C" stroke-width="2" stroke-linecap="round" stroke-linejoin="round"/>
<path d="M161.361 83.5956C161.438 83.9 161.477 84.2127 161.478 84.5267C161.481 85.1241 161.339 85.7134 161.062 86.2432C160.785 86.773 160.383 87.2273 159.891 87.5666C159.398 87.9059 158.83 88.1199 158.236 88.19C157.641 88.26 157.039 88.1841 156.48 87.9687" stroke="#B5545C" stroke-width="2" stroke-linecap="round" stroke-linejoin="round"/>
<path d="M160.42 100.714C161.684 100.917 162.962 101.02 164.243 101.021C167.552 101.017 170.823 100.32 173.846 98.9762" stroke="#B5545C" stroke-width="2" stroke-linecap="round" stroke-linejoin="round"/>
<path d="M176.57 64.2909C176.8 62.8123 177.449 61.4305 178.441 60.3091C179.433 59.1877 180.727 58.3739 182.168 57.964C183.61 57.5542 185.139 57.5655 186.574 57.9967C188.009 58.4278 189.291 59.2608 190.266 60.3967C191.241 61.5326 191.87 62.924 192.077 64.4057C192.285 65.8875 192.062 67.3975 191.436 68.7568C190.81 70.116 189.806 71.2676 188.544 72.0748C187.282 72.8821 185.815 73.3112 184.316 73.3114C183.567 73.3084 182.821 73.2021 182.101 72.9954" stroke="#B5545C" stroke-width="2" stroke-linecap="round" stroke-linejoin="round"/>
<path d="M234.421 251.818L217.056 276.759" stroke="#93B5C9" stroke-width="2" stroke-linecap="round" stroke-linejoin="round"/>
<path fill-rule="evenodd" clip-rule="evenodd" d="M225.784 30.9026H235.395C235.845 30.9026 236.228 31.4347 236.228 32.0915V38.0691C236.228 38.7259 235.854 39.2497 235.395 39.2497H225.784C225.334 39.2497 224.951 38.7259 224.951 38.0691V32.0915C224.96 31.4347 225.334 30.9026 225.784 30.9026Z" fill="#93B5C9"/>
<path fill-rule="evenodd" clip-rule="evenodd" d="M240.377 35.4585V39.1332C240.377 39.2413 240.302 39.2829 240.219 39.233L237.02 37.4123L233.83 35.5749C233.739 35.525 233.739 35.4419 233.83 35.392L237.02 33.5463L240.219 31.709C240.234 31.6976 240.253 31.691 240.272 31.69C240.292 31.6889 240.311 31.6936 240.328 31.7032C240.344 31.7129 240.358 31.7273 240.367 31.7445C240.375 31.7618 240.379 31.7812 240.377 31.8004V35.4585Z" fill="#93B5C9"/>
<path d="M218.514 35.0761C218.514 32.2808 219.344 29.5482 220.9 27.224C222.456 24.8997 224.667 23.0882 227.254 22.0185C229.841 20.9488 232.688 20.6689 235.435 21.2142C238.181 21.7595 240.704 23.1056 242.684 25.0822C244.665 27.0589 246.013 29.5772 246.559 32.3188C247.106 35.0605 246.825 37.9022 245.754 40.4848C244.682 43.0674 242.867 45.2747 240.539 46.8277C238.21 48.3807 235.473 49.2097 232.673 49.2097C228.917 49.2097 225.316 47.7206 222.661 45.07C220.005 42.4195 218.514 38.8246 218.514 35.0761Z" stroke="#93B5C9" stroke-width="2" stroke-linecap="round" stroke-linejoin="round"/>
<path d="M33.6815 0.831421H236.537C242.002 0.831421 247.243 2.99844 251.107 6.85577C254.971 10.7131 257.142 15.9448 257.142 21.3998V124.55C257.142 130.005 254.971 135.236 251.107 139.094C247.243 142.951 242.002 145.118 236.537 145.118H33.6815C28.2166 145.118 22.9756 142.951 19.1113 139.094C15.2471 135.236 13.0762 130.005 13.0762 124.55V21.3998C13.0762 15.9448 15.2471 10.7131 19.1113 6.85577C22.9756 2.99844 28.2166 0.831421 33.6815 0.831421V0.831421Z" stroke="#93B5C9" stroke-width="2" stroke-linecap="round" stroke-linejoin="round"/>
<path d="M255.843 14.0255H14.6172" stroke="#93B5C9" stroke-width="2" stroke-linecap="round" stroke-linejoin="round"/>
<path d="M27.8936 7.66535C27.8936 7.08619 28.0657 6.52006 28.3882 6.03863C28.7107 5.5572 29.1691 5.18211 29.7053 4.96086C30.2415 4.73961 30.8314 4.68214 31.4003 4.79574C31.9692 4.90933 32.4916 5.18888 32.9013 5.59898C33.3109 6.00909 33.5895 6.53131 33.7017 7.09954C33.8139 7.66776 33.7546 8.25644 33.5314 8.79103C33.3083 9.32563 32.9312 9.7821 32.448 10.1027C31.9648 10.4232 31.3972 10.5935 30.817 10.5918C30.4324 10.5918 30.0515 10.5161 29.6963 10.3689C29.3411 10.2217 29.0184 10.006 28.7469 9.73417C28.4753 9.46231 28.2601 9.13964 28.1137 8.78463C27.9673 8.42962 27.8925 8.04926 27.8936 7.66535Z" stroke="#93B5C9" stroke-width="2" stroke-linecap="round" stroke-linejoin="round"/>
<path d="M39.4453 7.66536C39.4453 7.08656 39.6173 6.52076 39.9394 6.0395C40.2615 5.55825 40.7194 5.18315 41.2551 4.96166C41.7908 4.74016 42.3803 4.68221 42.949 4.79512C43.5177 4.90804 44.0401 5.18676 44.4501 5.59604C44.8601 6.00531 45.1393 6.52676 45.2524 7.09444C45.3656 7.66211 45.3075 8.25053 45.0856 8.78527C44.8637 9.32001 44.4879 9.77707 44.0058 10.0986C43.5237 10.4202 42.9569 10.5918 42.377 10.5918C41.5995 10.5918 40.8538 10.2835 40.304 9.73469C39.7542 9.18587 39.4453 8.44151 39.4453 7.66536Z" stroke="#93B5C9" stroke-width="2" stroke-linecap="round" stroke-linejoin="round"/>
<path d="M51.0059 7.66536C51.0059 7.08656 51.1778 6.52076 51.5 6.0395C51.8221 5.55825 52.28 5.18315 52.8157 4.96166C53.3514 4.74016 53.9408 4.68221 54.5095 4.79512C55.0782 4.90804 55.6006 5.18676 56.0106 5.59604C56.4206 6.00531 56.6999 6.52676 56.813 7.09444C56.9261 7.66211 56.8681 8.25053 56.6462 8.78527C56.4243 9.32001 56.0485 9.77707 55.5664 10.0986C55.0843 10.4202 54.5174 10.5918 53.9376 10.5918C53.5523 10.5929 53.1706 10.518 52.8144 10.3713C52.4582 10.2246 52.1346 10.0091 51.8621 9.73713C51.5896 9.46517 51.3737 9.14212 51.2268 8.78657C51.0799 8.43102 51.0048 8.04998 51.0059 7.66536Z" stroke="#93B5C9" stroke-width="2" stroke-linecap="round" stroke-linejoin="round"/>
<path fill-rule="evenodd" clip-rule="evenodd" d="M186.564 542.652L211.217 542.444L210.976 577.562L134.768 577.08C135.059 569.855 149.076 557.018 166.167 554.474C183.258 551.93 186.564 544.947 186.564 542.652Z" fill="#9B9B9B"/>
<path d="M148.585 560.984C151.676 563.636 154.371 566.716 156.589 570.129" stroke="white" stroke-width="2" stroke-linecap="round" stroke-linejoin="round"/>
<path d="M160.162 556.411C163.257 559.059 165.953 562.14 168.166 565.557" stroke="white" stroke-width="2" stroke-linecap="round" stroke-linejoin="round"/>
<path d="M166.408 555.688C144.862 532.468 186.022 526.531 166.483 555.688" stroke="#93B5C9" stroke-width="2" stroke-linecap="round" stroke-linejoin="round"/>
<path d="M166.575 555.647C189.579 528.519 202.697 573.463 166.575 555.73" stroke="#93B5C9" stroke-width="2" stroke-linecap="round" stroke-linejoin="round"/>
<path d="M211.201 548.538H182.758" stroke="#93B5C9" stroke-width="2" stroke-linecap="round" stroke-linejoin="round"/>
<path d="M211.001 577.462L135.117 577.08" stroke="#93B5C9" stroke-width="2" stroke-linecap="round" stroke-linejoin="round"/>
<path fill-rule="evenodd" clip-rule="evenodd" d="M93.9655 543.359L118.61 543.151L118.369 578.268L42.1689 577.811C42.4605 570.586 56.4778 557.75 73.5684 555.206C90.659 552.662 93.9655 545.653 93.9655 543.359Z" fill="#9B9B9B"/>
<path d="M55.9609 561.691C59.0515 564.343 61.7467 567.423 63.9649 570.836" stroke="white" stroke-width="2" stroke-linecap="round" stroke-linejoin="round"/>
<path d="M67.5381 557.118C70.6328 559.766 73.3286 562.846 75.542 566.263" stroke="white" stroke-width="2" stroke-linecap="round" stroke-linejoin="round"/>
<path d="M73.7842 556.386C52.2377 533.174 93.3985 527.238 73.8592 556.386" stroke="#93B5C9" stroke-width="2" stroke-linecap="round" stroke-linejoin="round"/>
<path d="M73.9424 556.353C96.9464 529.217 110.056 574.17 73.9424 556.436" stroke="#93B5C9" stroke-width="2" stroke-linecap="round" stroke-linejoin="round"/>
<path d="M118.569 549.245H90.126" stroke="#93B5C9" stroke-width="2" stroke-linecap="round" stroke-linejoin="round"/>
<path d="M118.368 578.169L42.4766 577.811" stroke="#93B5C9" stroke-width="2" stroke-linecap="round" stroke-linejoin="round"/>
<path fill-rule="evenodd" clip-rule="evenodd" d="M47.0242 93.1731C45.9082 90.5293 46.3996 80.5111 52.4879 77.1856L47.0242 93.1731Z" fill="#F77F89"/>
<path d="M47.0242 93.1731C45.9082 90.5293 46.3996 80.5111 52.4879 77.1856" stroke="#B5545C" stroke-width="2" stroke-linecap="round" stroke-linejoin="round"/>
<path fill-rule="evenodd" clip-rule="evenodd" d="M55.2198 96.3739C54.5368 93.0484 56.3192 86.0565 59.9422 83.5873Z" fill="#F77F89"/>
<path d="M55.2198 96.3739C54.5368 93.0484 56.3192 86.0565 59.9422 83.5873" stroke="#B5545C" stroke-width="2" stroke-linecap="round" stroke-linejoin="round"/>
<path d="M172.472 132.68C177.835 128.648 183.924 120.916 186.023 115.388" stroke="#93B5C9" stroke-width="2" stroke-linecap="round" stroke-linejoin="round"/>
<path d="M136.858 230.983C152.591 234.384 171.331 233.195 180.493 232.172" stroke="#284A76" stroke-width="2" stroke-linecap="round" stroke-linejoin="round"/>
<path opacity="0.25" fill-rule="evenodd" clip-rule="evenodd" d="M33.5057 1H235.486C240.927 1 246.145 3.16272 249.992 7.01239C253.839 10.8621 256 16.0833 256 21.5276V124.472C256 129.917 253.839 135.138 249.992 138.988C246.145 142.837 240.927 145 235.486 145H33.5057C28.0665 144.998 22.8508 142.834 19.0055 138.985C15.1601 135.135 13 129.915 13 124.472V21.5276C12.9989 18.8322 13.5285 16.1631 14.5585 13.6726C15.5885 11.1822 17.0988 8.91916 19.003 7.01289C20.9073 5.10662 23.1682 3.59444 25.6566 2.56273C28.145 1.53102 30.8121 1 33.5057 1Z" fill="white"/>
</g>
<defs>
<clipPath id="clip0">
<rect width="258" height="579" fill="white"/>
</clipPath>
</defs>
</svg>
