<svg width="500" height="481" viewBox="0 0 500 481" fill="none" xmlns="http://www.w3.org/2000/svg">
<g clip-path="url(#clip0)">
<path fill-rule="evenodd" clip-rule="evenodd" d="M217.956 214.468C217.956 209.263 226.126 205.053 236.198 205.053C246.27 205.053 254.44 209.263 254.44 214.468C254.44 219.672 246.27 223.875 236.198 223.875C226.126 223.875 217.956 219.68 217.956 214.468Z" fill="#8DC5E0"/>
<path fill-rule="evenodd" clip-rule="evenodd" d="M189.452 433.237L194.988 451.102L217.957 445.843L215.704 423.125L189.452 433.237Z" fill="#4C4FD9"/>
<path fill-rule="evenodd" clip-rule="evenodd" d="M128.487 216.572H477.81C478.705 216.572 479.564 216.929 480.197 217.563C480.83 218.198 481.185 219.058 481.185 219.956V226.079C481.185 226.976 480.83 227.837 480.197 228.471C479.564 229.106 478.705 229.462 477.81 229.462H128.487C127.592 229.462 126.734 229.106 126.101 228.471C125.468 227.837 125.112 226.976 125.112 226.079V219.956C125.112 219.058 125.468 218.198 126.101 217.563C126.734 216.929 127.592 216.572 128.487 216.572V216.572Z" fill="#9BD1EB"/>
<path d="M176.043 229.769L105.374 447.015" stroke="#9BD1EB" stroke-width="2" stroke-linecap="round" stroke-linejoin="round"/>
<path d="M233.396 229.769L162.757 447.015" stroke="#9BD1EB" stroke-width="2" stroke-linecap="round" stroke-linejoin="round"/>
<path d="M233.396 229.769L304.027 447.015" stroke="#9BD1EB" stroke-width="2" stroke-linecap="round" stroke-linejoin="round"/>
<path d="M176.043 229.769L246.674 447.015" stroke="#9BD1EB" stroke-width="2" stroke-linecap="round" stroke-linejoin="round"/>
<path fill-rule="evenodd" clip-rule="evenodd" d="M112.842 411.452L105.404 428.292L125.99 437.133L135.153 420.11L112.842 411.452Z" fill="#4C4FD9"/>
<path fill-rule="evenodd" clip-rule="evenodd" d="M104.931 426.738L126.693 436.184C126.693 436.184 153.816 461.657 166.331 467.865C166.293 473.522 165.567 476.147 161.23 477.762C159.291 478.482 124.235 464.413 124.235 464.413L118.355 458.09L95.6768 447.635L104.931 426.738Z" fill="#6A3416"/>
<path d="M118.072 422.299C118.072 421.749 118.235 421.212 118.539 420.755C118.844 420.298 119.277 419.942 119.783 419.732C120.29 419.521 120.847 419.466 121.385 419.573C121.923 419.681 122.416 419.945 122.804 420.334C123.192 420.723 123.456 421.218 123.563 421.757C123.67 422.296 123.615 422.854 123.405 423.362C123.195 423.87 122.84 424.304 122.384 424.609C121.928 424.914 121.392 425.077 120.844 425.077C120.48 425.078 120.119 425.007 119.782 424.868C119.445 424.728 119.139 424.524 118.882 424.266C118.624 424.007 118.42 423.701 118.281 423.363C118.142 423.026 118.071 422.664 118.072 422.299V422.299Z" stroke="white" stroke-width="2" stroke-linecap="round" stroke-linejoin="round"/>
<path d="M107.589 425.919C107.589 425.368 107.752 424.829 108.058 424.37C108.364 423.912 108.798 423.555 109.306 423.344C109.815 423.134 110.374 423.079 110.913 423.187C111.453 423.295 111.948 423.561 112.336 423.952C112.725 424.342 112.989 424.839 113.095 425.38C113.202 425.921 113.146 426.482 112.934 426.991C112.722 427.5 112.365 427.934 111.907 428.239C111.449 428.545 110.911 428.707 110.361 428.705C109.625 428.703 108.92 428.409 108.4 427.887C107.881 427.364 107.589 426.657 107.589 425.919V425.919Z" stroke="white" stroke-width="2" stroke-linecap="round" stroke-linejoin="round"/>
<path d="M121.959 430.81C121.959 430.261 122.122 429.724 122.426 429.267C122.731 428.81 123.164 428.454 123.67 428.243C124.177 428.033 124.734 427.978 125.272 428.085C125.809 428.192 126.303 428.457 126.691 428.846C127.078 429.234 127.342 429.729 127.449 430.268C127.556 430.807 127.501 431.366 127.292 431.874C127.082 432.381 126.727 432.815 126.271 433.121C125.815 433.426 125.279 433.589 124.731 433.589C123.996 433.589 123.291 433.296 122.771 432.775C122.251 432.254 121.959 431.547 121.959 430.81Z" stroke="white" stroke-width="2" stroke-linecap="round" stroke-linejoin="round"/>
<path fill-rule="evenodd" clip-rule="evenodd" d="M93.9666 443.616L116.164 453.513C116.741 453.765 117.195 454.236 117.426 454.823C117.658 455.409 117.649 456.064 117.401 456.644L115.461 461.014C115.331 461.298 115.147 461.554 114.918 461.766C114.69 461.978 114.422 462.143 114.129 462.251C113.837 462.359 113.526 462.408 113.215 462.396C112.904 462.383 112.598 462.309 112.315 462.178L90.1029 452.281C89.8169 452.157 89.5579 451.979 89.3408 451.755C89.1238 451.531 88.9529 451.267 88.838 450.977C88.7231 450.687 88.6664 450.377 88.6712 450.064C88.676 449.752 88.7421 449.444 88.8659 449.158L90.7978 444.787C90.9285 444.501 91.1144 444.244 91.3446 444.03C91.5748 443.816 91.8449 443.65 92.1394 443.541C92.4339 443.433 92.7469 443.383 93.0604 443.396C93.374 443.409 93.682 443.484 93.9666 443.616V443.616Z" fill="#3C1B09"/>
<path fill-rule="evenodd" clip-rule="evenodd" d="M56.4211 250.298C106.978 236.022 179.503 243.929 195.148 265.706C200.738 273.483 198.844 285.653 197.439 290.238C196.034 294.823 136.872 422.061 136.872 422.061L110.345 411.95L136.414 308.616C136.414 308.616 50.1368 252.058 56.4211 250.298Z" fill="#C4C4C4"/>
<path d="M119.737 415.525L150.273 316.89" stroke="#8D8D8D" stroke-width="2" stroke-linecap="round" stroke-linejoin="round"/>
<path d="M113.01 401.341L141.476 412.057" stroke="#8D8D8D" stroke-width="2" stroke-linecap="round" stroke-linejoin="round"/>
<path fill-rule="evenodd" clip-rule="evenodd" d="M194.529 449.456L217.33 442.935C217.33 442.935 254.417 445.407 268.024 442.254C271.575 446.655 272.697 449.143 270.315 453.153C269.269 454.937 233.258 466.334 233.258 466.334L224.714 465.178L200.592 471.509L194.529 449.456Z" fill="#6A3416"/>
<path fill-rule="evenodd" clip-rule="evenodd" d="M196.721 469.488L220.148 463.035C220.447 462.949 220.76 462.922 221.069 462.957C221.378 462.991 221.677 463.087 221.95 463.237C222.222 463.388 222.462 463.591 222.656 463.835C222.85 464.079 222.994 464.358 223.08 464.658L224.348 469.251C224.427 469.553 224.446 469.867 224.404 470.177C224.361 470.486 224.259 470.784 224.101 471.054C223.944 471.323 223.735 471.559 223.486 471.747C223.237 471.936 222.954 472.073 222.653 472.152L199.226 478.604C198.927 478.691 198.614 478.717 198.305 478.683C197.996 478.648 197.697 478.553 197.424 478.402C197.152 478.251 196.912 478.048 196.718 477.804C196.524 477.561 196.38 477.281 196.294 476.981L195.026 472.389C194.947 472.087 194.928 471.772 194.97 471.462C195.012 471.153 195.115 470.855 195.273 470.585C195.43 470.316 195.639 470.08 195.888 469.892C196.137 469.704 196.42 469.566 196.721 469.488V469.488Z" fill="#3C1B09"/>
<path d="M204.716 441.458C204.714 440.906 204.876 440.366 205.181 439.907C205.486 439.447 205.92 439.089 206.428 438.877C206.936 438.665 207.496 438.61 208.036 438.717C208.575 438.824 209.071 439.09 209.461 439.48C209.85 439.87 210.115 440.367 210.222 440.908C210.329 441.449 210.273 442.01 210.062 442.52C209.85 443.029 209.493 443.464 209.035 443.77C208.576 444.075 208.038 444.238 207.488 444.236C206.753 444.236 206.047 443.943 205.528 443.422C205.008 442.901 204.716 442.194 204.716 441.458Z" stroke="white" stroke-width="2" stroke-linecap="round" stroke-linejoin="round"/>
<path d="M209.687 432.471C209.685 431.92 209.847 431.38 210.152 430.921C210.457 430.461 210.891 430.103 211.399 429.891C211.907 429.679 212.466 429.623 213.006 429.731C213.546 429.838 214.042 430.103 214.431 430.494C214.82 430.884 215.085 431.381 215.192 431.922C215.299 432.463 215.244 433.024 215.032 433.533C214.821 434.043 214.464 434.478 214.005 434.783C213.547 435.089 213.009 435.251 212.458 435.25C211.724 435.248 211.02 434.954 210.501 434.434C209.981 433.913 209.689 433.208 209.687 432.471V432.471Z" stroke="white" stroke-width="2" stroke-linecap="round" stroke-linejoin="round"/>
<path d="M194.529 439.475C194.529 438.926 194.692 438.388 194.996 437.931C195.301 437.474 195.734 437.118 196.24 436.908C196.747 436.698 197.304 436.643 197.842 436.75C198.38 436.857 198.873 437.122 199.261 437.51C199.649 437.899 199.913 438.394 200.02 438.933C200.127 439.472 200.072 440.031 199.862 440.538C199.652 441.046 199.297 441.48 198.841 441.785C198.385 442.091 197.849 442.254 197.301 442.254C196.566 442.254 195.861 441.961 195.341 441.44C194.821 440.919 194.529 440.212 194.529 439.475Z" stroke="white" stroke-width="2" stroke-linecap="round" stroke-linejoin="round"/>
<path fill-rule="evenodd" clip-rule="evenodd" d="M14.9891 312.78H130.901C134.876 312.78 138.688 314.363 141.499 317.181C144.31 319.999 145.89 323.821 145.89 327.806C145.89 331.791 144.31 335.612 141.499 338.43C138.688 341.248 134.876 342.831 130.901 342.831H14.9891C11.0137 342.831 7.2012 341.248 4.3902 338.43C1.5792 335.612 0 331.791 0 327.806H0C0 323.821 1.5792 319.999 4.3902 317.181C7.2012 314.363 11.0137 312.78 14.9891 312.78V312.78Z" fill="#9BD1EB"/>
<path fill-rule="evenodd" clip-rule="evenodd" d="M68.0881 332.567H77.8009C78.5704 332.567 79.3085 332.873 79.8526 333.419C80.3968 333.964 80.7025 334.704 80.7025 335.475V443.096C80.7025 443.867 80.3968 444.607 79.8526 445.152C79.3085 445.698 78.5704 446.004 77.8009 446.004H68.0881C67.3186 446.004 66.5805 445.698 66.0364 445.152C65.4922 444.607 65.1865 443.867 65.1865 443.096V335.475C65.1865 334.704 65.4922 333.964 66.0364 333.419C66.5805 332.873 67.3186 332.567 68.0881 332.567Z" fill="#9BD1EB"/>
<path fill-rule="evenodd" clip-rule="evenodd" d="M64.1785 411.452H81.7409C83.0086 411.452 84.2245 411.957 85.1209 412.856C86.0173 413.755 86.5209 414.973 86.5209 416.244V442.223C86.5209 442.855 86.396 443.482 86.1534 444.066C85.9108 444.649 85.5553 445.179 85.1074 445.625C84.6595 446.07 84.128 446.422 83.5437 446.661C82.9593 446.899 82.3336 447.02 81.7027 447.015H64.1404C62.8726 447.015 61.6568 446.51 60.7604 445.611C59.864 444.713 59.3604 443.494 59.3604 442.223V416.244C59.3603 415.612 59.4852 414.985 59.7278 414.402C59.9704 413.818 60.3259 413.288 60.7739 412.842C61.2218 412.397 61.7532 412.045 62.3376 411.806C62.9219 411.568 63.5476 411.447 64.1785 411.452Z" fill="#9BD1EB"/>
<path d="M14.752 465.515V460.44C14.752 456.88 16.163 453.465 18.6747 450.947C21.1864 448.429 24.5931 447.015 28.1451 447.015H72.9444" stroke="#9BD1EB" stroke-width="2" stroke-linecap="round" stroke-linejoin="round"/>
<path d="M131.008 465.515V460.44C131.007 458.676 130.659 456.928 129.984 455.298C129.309 453.669 128.32 452.188 127.075 450.941C125.829 449.694 124.35 448.706 122.723 448.032C121.096 447.358 119.352 447.013 117.592 447.015H72.8076" stroke="#9BD1EB" stroke-width="2" stroke-linecap="round" stroke-linejoin="round"/>
<path d="M50.9922 465.515V459.392C50.9922 452.556 54.5428 447.015 58.9182 447.015H86.9721C91.3474 447.015 94.8981 452.556 94.8981 459.392V465.515" stroke="#9BD1EB" stroke-width="2" stroke-linecap="round" stroke-linejoin="round"/>
<path d="M7.41406 472.879C7.41406 471.424 7.84443 470.002 8.65074 468.792C9.45705 467.582 10.6031 466.64 11.9439 466.083C13.2848 465.526 14.7602 465.38 16.1836 465.664C17.6071 465.948 18.9146 466.649 19.9408 467.677C20.9671 468.706 21.6659 470.017 21.9491 471.444C22.2322 472.871 22.0869 474.35 21.5315 475.694C20.9761 477.038 20.0356 478.187 18.8288 478.995C17.6221 479.803 16.2034 480.235 14.7521 480.235C12.8065 480.233 10.9413 479.457 9.56555 478.078C8.18984 476.699 7.41608 474.829 7.41406 472.879V472.879Z" stroke="#9BD1EB" stroke-width="2" stroke-linecap="round" stroke-linejoin="round"/>
<path d="M43.6543 472.879C43.6543 471.424 44.0847 470.002 44.891 468.792C45.6973 467.582 46.8433 466.64 48.1842 466.083C49.525 465.526 51.0004 465.38 52.4239 465.664C53.8473 465.948 55.1548 466.649 56.1811 467.677C57.2073 468.706 57.9062 470.017 58.1893 471.444C58.4725 472.871 58.3271 474.35 57.7717 475.694C57.2163 477.038 56.2758 478.187 55.0691 478.995C53.8624 479.803 52.4436 480.235 50.9923 480.235C49.0468 480.233 47.1815 479.457 45.8058 478.078C44.4301 476.699 43.6563 474.829 43.6543 472.879V472.879Z" stroke="#9BD1EB" stroke-width="2" stroke-linecap="round" stroke-linejoin="round"/>
<path d="M94.8976 465.515C96.3507 465.514 97.7717 465.944 98.9807 466.753C100.19 467.561 101.132 468.71 101.69 470.056C102.247 471.401 102.393 472.882 102.111 474.311C101.828 475.739 101.129 477.052 100.102 478.083C99.0751 479.113 97.7662 479.815 96.3411 480.1C94.916 480.385 93.4386 480.24 92.0959 479.682C90.7532 479.125 89.6056 478.182 88.7981 476.97C87.9906 475.759 87.5596 474.335 87.5596 472.879C87.5596 470.927 88.3324 469.055 89.7084 467.675C91.0843 466.294 92.9507 465.517 94.8976 465.515" stroke="#9BD1EB" stroke-width="2" stroke-linecap="round" stroke-linejoin="round"/>
<path d="M123.7 472.879C123.7 471.424 124.131 470.002 124.937 468.792C125.743 467.582 126.889 466.64 128.23 466.083C129.571 465.526 131.046 465.38 132.47 465.664C133.893 465.948 135.201 466.649 136.227 467.677C137.253 468.706 137.952 470.017 138.235 471.444C138.518 472.871 138.373 474.35 137.818 475.694C137.262 477.038 136.322 478.187 135.115 478.995C133.908 479.803 132.49 480.235 131.038 480.235C129.093 480.233 127.227 479.457 125.852 478.078C124.476 476.699 123.702 474.829 123.7 472.879V472.879Z" stroke="#9BD1EB" stroke-width="2" stroke-linecap="round" stroke-linejoin="round"/>
<path fill-rule="evenodd" clip-rule="evenodd" d="M19.3334 220.346C-26.9167 317.189 66.431 319.799 99.1886 319.317C131.946 318.835 140.567 316.362 149.432 314.211C152.265 322.815 186.222 434.232 186.222 434.232L216.039 425.2C216.039 425.2 193.246 283.655 188.1 274.095C173.966 247.81 90.3616 246.386 79.786 247.022C69.2105 247.657 25.1977 208.069 19.3334 220.346Z" fill="#C4C4C4"/>
<path d="M22.2197 233.58C-9.46124 312.841 126.41 308.065 156.129 298.987C160.573 311.731 197.362 430.19 197.362 430.19" stroke="#8D8D8D" stroke-width="2" stroke-linecap="round" stroke-linejoin="round"/>
<path d="M194.033 299.132C184.474 297.161 175.86 292.009 169.588 284.513C163.316 277.017 159.755 267.617 159.481 257.837" stroke="#8D8D8D" stroke-width="2" stroke-linecap="round" stroke-linejoin="round"/>
<path d="M135.207 317.12C139.998 316.413 144.748 315.442 149.433 314.211C150.608 317.778 157.137 339.035 164.368 362.687" stroke="#8D8D8D" stroke-width="2" stroke-linecap="round" stroke-linejoin="round"/>
<path d="M193.812 297.586C191.323 285.133 189.23 276.254 188.1 274.095C174.814 249.402 100.166 246.646 82.459 246.937" stroke="#8D8D8D" stroke-width="2" stroke-linecap="round" stroke-linejoin="round"/>
<path d="M214.612 416.443L183.656 425.82" stroke="#8D8D8D" stroke-width="2" stroke-linecap="round" stroke-linejoin="round"/>
<path fill-rule="evenodd" clip-rule="evenodd" d="M75.3428 70.1752C75.3428 67.0381 76.2709 63.9715 78.0097 61.3632C79.7485 58.7549 82.2199 56.7221 85.1113 55.5219C88.0028 54.3217 91.1843 54.0081 94.2536 54.6207C97.3228 55.2333 100.142 56.7445 102.354 58.9633C104.567 61.1821 106.073 64.0088 106.682 67.0858C107.292 70.1628 106.978 73.3519 105.779 76.2498C104.58 79.1477 102.551 81.6241 99.9485 83.3659C97.3457 85.1077 94.286 86.0366 91.1565 86.035C89.0792 86.035 87.0222 85.6248 85.1031 84.8276C83.184 84.0305 81.4404 82.8622 79.9718 81.3893C78.5033 79.9165 77.3386 78.1681 76.5443 76.2439C75.7501 74.3198 75.3418 72.2576 75.3428 70.1752V70.1752Z" fill="#6A3416"/>
<path fill-rule="evenodd" clip-rule="evenodd" d="M224.859 200.736C227.463 198.592 234.518 193.364 236.778 193.395C239.039 193.426 245.88 199.871 246.033 201.562C246.186 203.254 244.01 205.925 242.711 206.117C241.413 206.308 237.237 202.289 236.32 202.649C235.404 203.009 233.388 205.152 232.8 206.101C232.212 207.05 222.263 202.841 224.859 200.736Z" fill="#F77F89"/>
<path fill-rule="evenodd" clip-rule="evenodd" d="M131.549 158.713L147.172 174.695C147.172 174.695 158.992 149.26 167.224 135.804C165.559 133.4 162.642 123.825 163.017 122.026C163.391 120.227 171.989 103.25 174.066 104.237C176.142 105.224 178.082 108.539 177.021 111.891C178.25 107.475 180.327 101.367 182.159 100.762C183.992 100.157 187.848 100.953 187.68 104.053C188.558 102.025 190.108 100.601 191.88 100.525C193.407 100.456 196.522 101.765 196.736 103.694C196.996 106.105 193.56 111.861 193.14 112.68C194.743 110.491 194.728 110.384 195.69 110.384C197.622 110.452 200.89 113.33 199.294 117.487C197.698 121.643 189.811 141.039 183.702 141.866C183.984 145.632 165.781 198.179 165.781 198.179L138.2 197.077L118.11 170.44L131.549 158.713Z" fill="#F77F89"/>
<path fill-rule="evenodd" clip-rule="evenodd" d="M77.213 100.976C26.4884 101.038 9.5369 220.384 14.8361 228.567C18.7228 234.568 64.7361 252.211 80.5041 246.792C86.0706 244.878 100.556 215.065 108.757 184.983C117.5 177.788 134.046 164.163 136.742 161.538C135.978 155.774 122.684 132.551 108.917 122.263C104.16 111.371 95.3328 100.976 77.213 100.976Z" fill="#0D2B52"/>
<path fill-rule="evenodd" clip-rule="evenodd" d="M90.332 182.067C90.332 182.067 114.545 212.684 120.913 215.172C127.282 217.659 196.065 216.863 201.089 216.274C206.114 215.685 205.197 219.527 209.741 219.772C214.444 220.032 217.155 215.861 217.797 213.756C220.668 216.955 225.73 221.877 229.052 220.162C231.403 218.938 231.434 217.866 229.815 216.174C232.106 217.499 236.245 219.443 237.917 218.134C240.605 216.037 240.857 214.077 239.948 212.447C237.146 207.403 228.12 200.261 225.974 199.434C223.5 198.455 215.964 201.149 212.337 201.371C195.897 202.389 154.442 192.14 140.843 191.52C138.842 187.693 118.111 162.563 116.508 160.053C110.819 164.929 90.332 182.067 90.332 182.067Z" fill="#F77F89"/>
<path fill-rule="evenodd" clip-rule="evenodd" d="M83.5742 76.4288C83.5727 71.6654 84.9805 67.0086 87.6195 63.0474C90.2585 59.0862 94.0102 55.9986 98.4 54.175C102.79 52.3515 107.621 51.8739 112.281 52.8029C116.942 53.7318 121.223 56.0254 124.583 59.3936C127.943 62.7618 130.231 67.0532 131.157 71.7251C132.084 76.397 131.608 81.2395 129.789 85.6399C127.969 90.0404 124.889 93.8012 120.938 96.4466C116.986 99.092 112.341 100.503 107.589 100.502C101.22 100.5 95.1133 97.9628 90.6102 93.4487C86.107 88.9346 83.5762 82.8127 83.5742 76.4288V76.4288Z" fill="#F77F89"/>
<path fill-rule="evenodd" clip-rule="evenodd" d="M86.7959 71.1856C86.8951 74.9285 79.0761 98.5958 75.9912 103.127C77.5184 106.748 92.4616 115.826 99.3262 113.889C100.09 109.297 102.648 100.065 104.228 98.0141C105.809 95.9627 86.6966 67.412 86.7959 71.1856Z" fill="#F77F89"/>
<path fill-rule="evenodd" clip-rule="evenodd" d="M114.247 25.6727C111.965 25.6797 109.71 26.1845 107.642 27.152C105.573 28.1195 103.739 29.5266 102.267 31.2757C100.292 30.5292 98.2001 30.1404 96.0894 30.1276C93.2603 30.0872 90.4619 30.7195 87.9237 31.9726C85.3854 33.2257 83.1795 35.0639 81.4867 37.3366C79.794 39.6093 78.6626 42.2517 78.1853 45.0473C77.708 47.843 77.8984 50.7122 78.7409 53.4198C77.6739 54.4039 76.8218 55.5989 76.2383 56.9294C75.6548 58.26 75.3526 59.6973 75.3506 61.1507C75.3678 63.6516 76.2539 66.0684 77.8566 67.9851C79.4593 69.9018 81.6783 71.1986 84.1318 71.6525C84.2539 71.0631 84.2539 70.6498 84.4448 69.9762C84.9641 68.1851 92.7373 64.909 93.6078 65.4984C94.293 65.9912 95.0732 66.3353 95.8985 66.5088C95.9697 66.5129 96.0411 66.5129 96.1123 66.5088C99.3406 66.5005 102.508 65.6267 105.286 63.9779C108.064 62.3292 110.351 59.9656 111.911 57.1322C112.69 57.2695 113.479 57.3488 114.27 57.3695C114.27 60.5062 115.198 63.5726 116.937 66.1807C118.675 68.7889 121.146 70.8216 124.037 72.022C126.928 73.2224 130.109 73.5365 133.178 72.9246C136.247 72.3126 139.066 70.8021 141.279 68.5841C143.492 66.366 144.999 63.5401 145.609 60.4636C146.219 57.3871 145.906 54.1982 144.709 51.3002C143.511 48.4022 141.483 45.9252 138.882 44.1825C136.28 42.4398 133.221 41.5096 130.092 41.5096C130.089 39.4269 129.676 37.3651 128.879 35.4421C128.081 33.519 126.913 31.7723 125.441 30.3017C123.97 28.8312 122.224 27.6655 120.304 26.8712C118.383 26.077 116.325 25.6697 114.247 25.6727Z" fill="#6A3416"/>
<path fill-rule="evenodd" clip-rule="evenodd" d="M77.2061 61.8396C77.2106 59.9966 77.7599 58.1964 78.7846 56.6663C79.8093 55.1361 81.2634 53.9447 82.9632 53.2426C84.663 52.5405 86.5323 52.3592 88.3349 52.7215C90.1375 53.0838 91.7925 53.9735 93.0909 55.2783C94.3893 56.583 95.2728 58.2443 95.6298 60.0521C95.9868 61.86 95.8013 63.7334 95.0967 65.4356C94.3921 67.1378 93.2001 68.5925 91.6711 69.6159C90.1422 70.6393 88.345 71.1855 86.5065 71.1855C85.2832 71.1855 84.072 70.9436 82.9421 70.4737C81.8122 70.0037 80.7859 69.3149 79.922 68.4468C79.0581 67.5786 78.3735 66.5482 77.9075 65.4144C77.4414 64.2806 77.2031 63.0658 77.2061 61.8396V61.8396Z" fill="#F77F89"/>
<path d="M29.4586 223.875C28.4583 209.071 42.5692 154.075 53.1296 137.71" stroke="#737999" stroke-width="2" stroke-linecap="round" stroke-linejoin="round"/>
<path d="M60.7275 150.73C63.1863 155.82 75.3501 178.362 85.6584 186.315C89.5909 182.579 117.935 158.369 117.935 158.369C114.316 151.625 96.9136 130.484 91.2707 125.302" stroke="#737999" stroke-width="2" stroke-linecap="round" stroke-linejoin="round"/>
<path d="M80.3213 181.171L114.392 152.949" stroke="#737999" stroke-width="2" stroke-linecap="round" stroke-linejoin="round"/>
<path d="M105.03 115.252C104.795 116.008 104.439 116.721 103.977 117.364C99.9298 123.029 88.5219 122.409 78.4961 115.987" stroke="#737999" stroke-width="2" stroke-linecap="round" stroke-linejoin="round"/>
<path d="M109.017 122.317C110.948 127.353 113.598 139.103 112.476 150.347" stroke="#737999" stroke-width="2" stroke-linecap="round" stroke-linejoin="round"/>
<path d="M121.562 166.582L134.39 155.169" stroke="#737999" stroke-width="2" stroke-linecap="round" stroke-linejoin="round"/>
<path d="M65.668 213.557C69.9058 212.891 93.0423 213.365 88.7663 214.82C84.4902 216.274 76.4879 217.307 80.0538 218.149C83.4791 218.954 86.9494 219.552 90.4461 219.94" stroke="#737999" stroke-width="2" stroke-linecap="round" stroke-linejoin="round"/>
<path d="M120.325 77.0641C120.088 79.1843 120.554 83.953 122.149 86.035" stroke="#B5545C" stroke-width="2" stroke-linecap="round" stroke-linejoin="round"/>
<path fill-rule="evenodd" clip-rule="evenodd" d="M107.451 74.2473C108.215 72.4332 109.742 71.3386 110.804 71.8055C111.865 72.2724 112.079 74.1018 111.292 75.9312C110.506 77.7606 109.001 78.8399 107.94 78.373C106.879 77.906 106.657 76.069 107.451 74.2473Z" fill="#B5545C"/>
<path fill-rule="evenodd" clip-rule="evenodd" d="M125.586 78.3883C126.35 76.5742 127.877 75.4796 128.938 75.9389C130 76.3982 130.213 78.2352 129.427 80.0646C128.64 81.894 127.136 82.9733 126.075 82.5063C125.013 82.0394 124.792 80.1947 125.586 78.3883Z" fill="#B5545C"/>
<path d="M107.359 91.7069C105.893 91.2407 104.597 90.3516 103.633 89.1508C102.668 87.95 102.079 86.4908 101.938 84.9557" stroke="#B5545C" stroke-width="2" stroke-linecap="round" stroke-linejoin="round"/>
<path d="M103.167 100.096C99.9803 99.497 96.9472 98.2578 94.2505 96.453C91.5539 94.6482 89.2493 92.3152 87.4756 89.5943" stroke="#B5545C" stroke-width="2" stroke-linecap="round" stroke-linejoin="round"/>
<path d="M89.7517 70.5732C88.7144 70.9648 87.6149 71.1645 86.5065 71.1626C85.6599 71.1624 84.8173 71.0465 84.002 70.8181" stroke="#B5545C" stroke-width="2" stroke-linecap="round" stroke-linejoin="round"/>
<path d="M84.7117 67.4579C83.7319 67.191 82.8461 66.6547 82.1544 65.9096C81.4626 65.1646 80.9925 64.2405 80.7971 63.2417C80.6017 62.2429 80.6888 61.2092 81.0486 60.2574C81.4084 59.3057 82.0265 58.4737 82.8332 57.8556C83.6398 57.2374 84.6029 56.8577 85.6135 56.7594C86.6241 56.661 87.642 56.8479 88.5522 57.2989C89.4624 57.7499 90.2287 58.4471 90.7644 59.3117C91.3001 60.1763 91.584 61.1739 91.584 62.1917" stroke="#B5545C" stroke-width="2" stroke-linecap="round" stroke-linejoin="round"/>
<path d="M166.46 195.408L141.056 191.52L125.288 171.22" stroke="#B5545C" stroke-width="2" stroke-linecap="round" stroke-linejoin="round"/>
<path d="M176.586 133.607C177.533 131.54 180.159 127.009 179.251 125.034C178.342 123.059 172.05 120.388 172.821 118.497C173.592 116.607 177.09 111.493 177.09 111.493" stroke="#B5545C" stroke-width="2" stroke-linecap="round" stroke-linejoin="round"/>
<path d="M187.642 104.038L182.824 113.912" stroke="#B5545C" stroke-width="2" stroke-linecap="round" stroke-linejoin="round"/>
<path d="M193.369 112.672L189.452 118.245" stroke="#B5545C" stroke-width="2" stroke-linecap="round" stroke-linejoin="round"/>
<path d="M226.471 199.672L233.465 205.03" stroke="#B5545C" stroke-width="2" stroke-linecap="round" stroke-linejoin="round"/>
<path d="M229.715 215.853L224.492 211.015" stroke="#B5545C" stroke-width="2" stroke-linecap="round" stroke-linejoin="round"/>
<path fill-rule="evenodd" clip-rule="evenodd" d="M198.34 28.4513H207.144C207.556 28.4513 207.907 28.9412 207.907 29.5459V35.0494C207.907 35.6541 207.564 36.1363 207.144 36.1363H198.34C197.92 36.1363 197.576 35.6541 197.576 35.0494V29.5459C197.584 28.9412 197.92 28.4513 198.34 28.4513Z" fill="#8DC5E0"/>
<path fill-rule="evenodd" clip-rule="evenodd" d="M211.71 32.6458V36.0291C211.71 36.1286 211.642 36.1668 211.565 36.1209L208.633 34.4446L205.709 32.753C205.625 32.7071 205.625 32.6305 205.709 32.5846L208.633 30.8853L211.565 29.1937C211.58 29.1832 211.597 29.1772 211.614 29.1762C211.632 29.1753 211.65 29.1795 211.665 29.1884C211.68 29.1974 211.693 29.2106 211.701 29.2265C211.709 29.2423 211.712 29.2602 211.71 29.2779V32.6458Z" fill="#8DC5E0"/>
<path d="M191.658 32.2938C191.658 29.7201 192.42 27.2043 193.846 25.0645C195.272 22.9246 197.3 21.2567 199.672 20.2719C202.043 19.287 204.653 19.0293 207.172 19.5314C209.69 20.0335 212.003 21.2728 213.818 23.0926C215.633 24.9124 216.87 27.231 217.371 29.7552C217.871 32.2793 217.614 34.8957 216.632 37.2734C215.649 39.6511 213.986 41.6834 211.851 43.1132C209.716 44.543 207.206 45.3062 204.639 45.3062C201.196 45.3062 197.895 43.9352 195.46 41.4949C193.026 39.0546 191.658 35.7449 191.658 32.2938Z" stroke="#8DC5E0" stroke-width="2" stroke-linecap="round" stroke-linejoin="round"/>
<path d="M22.2124 0.765443H208.213C210.694 0.764438 213.151 1.25357 215.443 2.20488C217.736 3.15619 219.819 4.55103 221.573 6.30969C223.328 8.06834 224.719 10.1563 225.668 12.4543C226.617 14.7523 227.105 17.2152 227.104 19.7023V114.67C227.104 119.692 225.114 124.509 221.571 128.06C218.028 131.612 213.223 133.607 208.213 133.607H22.2124C17.2036 133.605 12.4005 131.609 8.85944 128.058C5.31835 124.507 3.3291 119.691 3.3291 114.67V19.7023C3.3281 17.2159 3.81579 14.7536 4.76432 12.4561C5.71285 10.1586 7.10362 8.07095 8.85721 6.31239C10.6108 4.55384 12.6928 3.15884 14.9843 2.20708C17.2759 1.25532 19.732 0.765443 22.2124 0.765443V0.765443Z" stroke="#8DC5E0" stroke-width="2" stroke-linecap="round" stroke-linejoin="round"/>
<path d="M225.89 12.9129H4.73438" stroke="#8DC5E0" stroke-width="2" stroke-linecap="round" stroke-linejoin="round"/>
<path d="M16.9053 7.06497C16.9038 6.53175 17.0601 6.01008 17.3545 5.56599C17.649 5.12191 18.0682 4.77538 18.5592 4.57027C19.0502 4.36517 19.5909 4.31072 20.1128 4.41382C20.6346 4.51691 21.1143 4.77292 21.4909 5.14942C21.8676 5.52592 22.1243 6.00599 22.2287 6.52885C22.333 7.05171 22.2802 7.59384 22.077 8.08661C21.8738 8.57939 21.5293 9.00064 21.0871 9.29703C20.645 9.59343 20.125 9.75165 19.5931 9.75165C18.8816 9.75165 18.1991 9.46883 17.6952 8.9652C17.1914 8.46157 16.9073 7.77822 16.9053 7.06497V7.06497Z" stroke="#6AC0FF" stroke-width="2" stroke-linecap="round" stroke-linejoin="round"/>
<path d="M27.4893 7.06497C27.4878 6.53175 27.6441 6.01008 27.9385 5.56599C28.2329 5.12191 28.6522 4.77538 29.1432 4.57027C29.6342 4.36517 30.1749 4.31072 30.6967 4.41382C31.2186 4.51691 31.6983 4.77292 32.0749 5.14942C32.4516 5.52592 32.7083 6.00599 32.8127 6.52885C32.917 7.05171 32.8642 7.59384 32.661 8.08661C32.4578 8.57939 32.1133 9.00064 31.6711 9.29703C31.229 9.59343 30.709 9.75165 30.1771 9.75165C29.8245 9.75265 29.4751 9.68391 29.1491 9.54934C28.823 9.41477 28.5267 9.21703 28.277 8.96745C28.0273 8.71787 27.8292 8.42135 27.694 8.09489C27.5588 7.76842 27.4893 7.41843 27.4893 7.06497V7.06497Z" stroke="#6AC0FF" stroke-width="2" stroke-linecap="round" stroke-linejoin="round"/>
<path d="M38.0947 7.06497C38.0932 6.53175 38.2496 6.01008 38.544 5.56599C38.8384 5.12191 39.2577 4.77538 39.7487 4.57027C40.2397 4.36517 40.7803 4.31072 41.3022 4.41382C41.8241 4.51691 42.3037 4.77292 42.6804 5.14942C43.057 5.52592 43.3138 6.00599 43.4181 6.52885C43.5224 7.05171 43.4697 7.59384 43.2665 8.08661C43.0633 8.57939 42.7188 9.00064 42.2766 9.29703C41.8344 9.59343 41.3145 9.75165 40.7825 9.75165C40.071 9.75165 39.3885 9.46883 38.8847 8.9652C38.3808 8.46157 38.0968 7.77822 38.0947 7.06497V7.06497Z" stroke="#6AC0FF" stroke-width="2" stroke-linecap="round" stroke-linejoin="round"/>
<path d="M371.253 229.769L300.614 447.015" stroke="#9BD1EB" stroke-width="2" stroke-linecap="round" stroke-linejoin="round"/>
<path d="M428.606 229.769L357.967 447.015" stroke="#9BD1EB" stroke-width="2" stroke-linecap="round" stroke-linejoin="round"/>
<path d="M428.605 229.769L499.237 447.015" stroke="#9BD1EB" stroke-width="2" stroke-linecap="round" stroke-linejoin="round"/>
<path d="M371.253 229.769L441.884 447.015" stroke="#9BD1EB" stroke-width="2" stroke-linecap="round" stroke-linejoin="round"/>
<path fill-rule="evenodd" clip-rule="evenodd" d="M248.928 88.3313H358.417C360.684 88.3313 362.857 89.2337 364.459 90.84C366.062 92.4463 366.962 94.6249 366.962 96.8965V187.532C366.962 189.803 366.062 191.982 364.459 193.588C362.857 195.195 360.684 196.097 358.417 196.097H248.928C246.664 196.093 244.495 195.189 242.896 193.583C241.297 191.977 240.398 189.801 240.398 187.532V96.8965C240.398 94.6275 241.297 92.4513 242.896 90.8454C244.495 89.2396 246.664 88.3354 248.928 88.3313Z" fill="#9BD1EB"/>
<path fill-rule="evenodd" clip-rule="evenodd" d="M248.927 88.3236C247.806 88.3226 246.695 88.5432 245.658 88.9728C244.621 89.4025 243.679 90.0326 242.886 90.8274C242.092 91.6221 241.463 92.5659 241.033 93.6046C240.604 94.6434 240.383 95.7568 240.383 96.8812V187.532C240.393 189.797 241.298 191.966 242.899 193.564C244.5 195.162 246.668 196.059 248.927 196.059H254.417C254.372 195.538 254.249 195.033 254.249 194.528V88.3236H248.927Z" fill="#8DC5E0"/>
<path fill-rule="evenodd" clip-rule="evenodd" d="M288.496 169.376H325.461L346.162 216.572H307.891L288.496 169.376Z" fill="#8DC5E0"/>
<path fill-rule="evenodd" clip-rule="evenodd" d="M411.982 183.314H442.434V216.572H411.982V183.314Z" fill="#8DC5E0"/>
<path d="M434.316 199.94C434.316 198.382 434.777 196.859 435.641 195.564C436.504 194.268 437.731 193.259 439.167 192.663C440.603 192.067 442.182 191.911 443.707 192.215C445.231 192.518 446.631 193.269 447.73 194.37C448.828 195.472 449.577 196.875 449.88 198.403C450.183 199.931 450.028 201.515 449.433 202.954C448.838 204.393 447.831 205.623 446.539 206.489C445.247 207.354 443.728 207.816 442.174 207.816C440.09 207.816 438.091 206.986 436.618 205.509C435.144 204.032 434.316 202.028 434.316 199.94V199.94Z" stroke="#8DC5E0" stroke-width="2" stroke-linecap="round" stroke-linejoin="round"/>
<path d="M411.982 188.978H442.174" stroke="#9BD1EB" stroke-width="2" stroke-linecap="round" stroke-linejoin="round"/>
<path opacity="0.25" fill-rule="evenodd" clip-rule="evenodd" d="M22.3121 1H208.313C213.323 1 218.128 2.99513 221.671 6.54649C225.213 10.0978 227.204 14.9145 227.204 19.9369V114.905C227.204 119.927 225.213 124.744 221.671 128.295C218.128 131.846 213.323 133.841 208.313 133.841H22.3121C17.3032 133.839 12.5001 131.843 8.95905 128.292C5.41796 124.741 3.42871 119.926 3.42871 114.905V19.9369C3.42771 17.4504 3.9154 14.9881 4.86393 12.6906C5.81246 10.3931 7.20323 8.3055 8.95681 6.54695C10.7104 4.7884 12.7924 3.3934 15.0839 2.44163C17.3755 1.48987 19.8316 1 22.3121 1V1Z" fill="white"/>
</g>
<defs>
<clipPath id="clip0">
<rect width="500" height="481" fill="white"/>
</clipPath>
</defs>
</svg>
