<?xml version="1.0" encoding="UTF-8"?>
<!DOCTYPE svg PUBLIC "-//W3C//DTD SVG 1.1//EN" "http://www.w3.org/Graphics/SVG/1.1/DTD/svg11.dtd">
<!-- Creator: CorelDRAW 2018 (64-Bit) -->
<svg xmlns="http://www.w3.org/2000/svg" xml:space="preserve" width="37.8837mm" height="37.8837mm" version="1.1" style="shape-rendering:geometricPrecision; text-rendering:geometricPrecision; image-rendering:optimizeQuality; fill-rule:evenodd; clip-rule:evenodd"
viewBox="0 0 5069.21 5069.21"
 xmlns:xlink="http://www.w3.org/1999/xlink">
 <defs>
  <style type="text/css">
   <![CDATA[
    .str0 {stroke:#87A5C7;stroke-width:113.3;stroke-miterlimit:22.9256}
    .fil0 {fill:none}
    .fil1 {fill:#87A5C7}
   ]]>
  </style>
 </defs>
 <g id="Слой_x0020_1">
  <metadata id="CorelCorpID_0Corel-Layer"/>
  <g id="_809796464">
   <circle class="fil0 str0" cx="2534.61" cy="2534.61" r="2477.95"/>
   <path class="fil1" d="M2519.84 2207.93c134.44,57.97 138.92,96.48 246.92,182.38l1113.58 934.33c71.2,54.75 58.47,47.84 131.88,112.64 202.17,178.49 560.28,115.95 527.49,-215.26 -16,-161.64 -97.13,-191.8 -181.07,-254.89 -58.31,-43.84 -61.83,-57.52 -112.86,-99.69l-750.31 -625.71c-69.26,-54.25 -60.33,-43.1 -134.55,-109.98l-503.73 -414.05c-409.48,-357.95 -450.59,-128.86 -832.3,148.06l-1017.82 816.91c-167.76,138.55 -427.98,302.26 -468.99,455.21 -71,264.72 226.61,454.14 455.23,297.29l1526.52 -1227.24z"/>
  </g>
 </g>
</svg>
