<?xml version="1.0" encoding="UTF-8"?>
<!DOCTYPE svg PUBLIC "-//W3C//DTD SVG 1.1//EN" "http://www.w3.org/Graphics/SVG/1.1/DTD/svg11.dtd">
<!-- Creator: CorelDRAW 2018 (64-Bit) -->
<svg xmlns="http://www.w3.org/2000/svg" xml:space="preserve" width="39.4234mm" height="39.4234mm" version="1.1" style="shape-rendering:geometricPrecision; text-rendering:geometricPrecision; image-rendering:optimizeQuality; fill-rule:evenodd; clip-rule:evenodd"
viewBox="0 0 1577.29 1577.29"
 xmlns:xlink="http://www.w3.org/1999/xlink">
 <defs>
  <style type="text/css">
   <![CDATA[
    .str0 {stroke:white;stroke-width:16.94;stroke-miterlimit:22.9256}
    .fil0 {fill:#93B5C9}
    .fil1 {fill:white}
   ]]>
  </style>
 </defs>
 <g id="Слой_x0020_1">
  <metadata id="CorelCorpID_0Corel-Layer"/>
  <g id="_677187296">
   <circle class="fil0 str0" cx="788.64" cy="788.64" r="780.17"/>
   <path class="fil1" d="M783.99 685.79c42.33,18.25 43.74,30.37 77.75,57.42l350.61 294.17c22.42,17.24 18.41,15.06 41.52,35.46 63.65,56.2 176.4,36.5 166.08,-67.78 -5.04,-50.89 -30.58,-60.39 -57.01,-80.25 -18.36,-13.8 -19.47,-18.11 -35.53,-31.39l-236.24 -197c-21.8,-17.08 -19,-13.57 -42.36,-34.63l-158.6 -130.36c-128.92,-112.7 -141.87,-40.57 -262.05,46.62l-320.46 257.2c-52.82,43.62 -134.75,95.17 -147.66,143.32 -22.35,83.34 71.35,142.98 143.33,93.6l480.62 -386.39z"/>
  </g>
 </g>
</svg>
