<?xml version="1.0" encoding="UTF-8"?>
<!DOCTYPE svg PUBLIC "-//W3C//DTD SVG 1.1//EN" "http://www.w3.org/Graphics/SVG/1.1/DTD/svg11.dtd">
<!-- Creator: CorelDRAW 2018 (64-Bit) -->
<svg xmlns="http://www.w3.org/2000/svg" xml:space="preserve" width="37.8836mm" height="37.8836mm" version="1.1" style="shape-rendering:geometricPrecision; text-rendering:geometricPrecision; image-rendering:optimizeQuality; fill-rule:evenodd; clip-rule:evenodd"
viewBox="0 0 1328858.47 1328858.47"
 xmlns:xlink="http://www.w3.org/1999/xlink">
 <defs>
  <style type="text/css">
   <![CDATA[
    .str0 {stroke:#305380;stroke-width:29700.04;stroke-miterlimit:22.9256}
    .fil0 {fill:none}
    .fil1 {fill:#305380}
   ]]>
  </style>
 </defs>
 <g id="Слой_x0020_1">
  <metadata id="CorelCorpID_0Corel-Layer"/>
  <g id="_838264432">
   <circle class="fil0 str0" cx="664429.24" cy="664429.24" r="649577.46"/>
   <path class="fil1" d="M660560.2 578794.76c35242.27,15195.53 36417.36,25290.81 64728.34,47810.51l291917.69 244928c18664.69,14353.68 15328.83,12540.17 34572.29,29528.16 52998.45,46789.75 146872.61,30394.57 138278.65,-56429.03 -4195.26,-42373.51 -25462.69,-50279.96 -47466.75,-66818.95 -15286.73,-11491.36 -16209.27,-15079.78 -29584.29,-26132.67l-196689.55 -164025.46c-18156.07,-14220.38 -15816.4,-11298.43 -35270.33,-28830.12l-132048.9 -108540.02c-107343.88,-93835.57 -118119.66,-33779.54 -218181.47,38813.15l-266816.3 214147.57c-43976.55,36319.15 -112191.58,79236.36 -122942.81,119329.83 -18612.07,69393.64 59403.59,119049.21 119336.85,77931.48l400166.57 -321712.44z"/>
  </g>
 </g>
</svg>
